# Blender 5.0.1
# www.blender.org
mtllib tripo_convert_d5938148-6d87-445e-b557-f9aab3281f3f.mtl
o tripo_node_d5938148-6d87-445e-b557-f9aab3281f3f
v 0.000977 0.500000 -0.180664
v 0.000977 0.615234 -0.299805
v 0.000977 0.617188 -0.315430
v 0.000977 0.722656 0.301758
v 0.000977 0.777344 0.182617
v 0.000977 0.781250 0.321289
v 0.000977 0.791016 -0.321289
v 0.000977 0.861328 0.319336
v 0.000977 0.873047 -0.319336
v 0.000977 0.890625 -0.182617
v 0.000977 0.960938 0.311523
v 0.000977 0.970703 0.305664
v 0.000977 0.976562 0.297852
v 0.000977 0.980469 0.290039
v 0.000977 0.984375 0.280273
v 0.000977 0.988281 0.252930
v 0.000977 0.988281 -0.290039
v 0.000977 0.990234 0.198242
v 0.000977 0.990234 -0.280273
v 0.000977 0.994141 -0.256836
v 0.000977 0.494141 0.182617
v 0.000977 0.384766 0.315430
v 0.000977 0.380859 -0.315430
v 0.002930 0.500000 0.317383
v 0.002930 0.500000 -0.297852
v 0.002930 0.500000 -0.315430
v 0.002930 0.613281 0.315430
v 0.002930 0.718750 0.182617
v 0.002930 0.726562 0.321289
v 0.002930 0.734375 -0.321289
v 0.002930 0.789062 0.000977
v 0.002930 0.267578 0.321289
v 0.002930 0.263672 -0.321289
v 0.002930 0.210938 0.301758
v 0.002930 0.208984 0.000977
v 0.002930 0.208984 0.182617
v 0.002930 0.208984 -0.301758
v 0.002930 0.207031 -0.182617
v 0.004883 0.500000 0.000977
v 0.004883 0.730469 0.000977
v 0.004883 0.781250 0.321289
v 0.004883 0.785156 -0.301758
v 0.004883 0.791016 -0.321289
v 0.004883 0.386719 0.299805
v 0.004883 0.384766 0.319336
v 0.004883 0.380859 -0.319336
v 0.004883 0.267578 0.000977
v 0.004883 0.267578 0.182617
v 0.004883 0.203125 0.321289
v 0.004883 0.203125 -0.321289
v 0.004883 0.076172 -0.297852
v 0.004883 0.070312 -0.305664
v 0.004883 0.054688 0.305664
v 0.004883 0.054688 -0.295898
v 0.004883 0.052734 0.293945
v 0.004883 0.046875 -0.303711
v 0.004883 0.042969 0.288086
v 0.004883 0.042969 0.301758
v 0.004883 0.042969 -0.291992
v 0.004883 0.037109 0.282227
v 0.004883 0.035156 0.295898
v 0.004883 0.035156 -0.288086
v 0.004883 0.035156 -0.301758
v 0.004883 0.031250 0.274414
v 0.004883 0.029297 0.264648
v 0.004883 0.029297 -0.282227
v 0.004883 0.027344 0.290039
v 0.004883 0.025391 0.239258
v 0.004883 0.025391 -0.272461
v 0.004883 0.025391 -0.295898
v 0.004883 0.023438 0.176758
v 0.004883 0.021484 0.280273
v 0.004883 0.021484 -0.239258
v 0.004883 0.021484 -0.262695
v 0.004883 0.019531 0.100586
v 0.004883 0.019531 0.270508
v 0.004883 0.019531 -0.290039
v 0.004883 0.017578 -0.000977
v 0.004883 0.017578 -0.102539
v 0.004883 0.017578 -0.174805
v 0.004883 0.015625 0.245117
v 0.004883 0.015625 -0.280273
v 0.004883 0.011719 0.182617
v 0.004883 0.011719 -0.270508
v 0.004883 0.009766 0.104492
v 0.004883 0.009766 -0.245117
v 0.004883 0.007812 -0.180664
v 0.004883 0.005859 -0.000977
v 0.004883 0.005859 -0.104492
v 0.006836 0.500000 0.301758
v 0.006836 0.500000 0.319336
v 0.006836 0.500000 -0.317383
v 0.006836 0.611328 0.299805
v 0.006836 0.613281 0.319336
v 0.006836 0.617188 -0.319336
v 0.006836 0.730469 -0.180664
v 0.006836 0.730469 -0.301758
v 0.006836 0.380859 0.182617
v 0.006836 0.273438 0.301758
v 0.006836 0.267578 0.321289
v 0.006836 0.267578 -0.184570
v 0.006836 0.267578 -0.301758
v 0.006836 0.263672 -0.321289
v 0.006836 0.083984 0.297852
v 0.006836 0.078125 0.307617
v 0.006836 0.062500 0.295898
v 0.008789 0.607422 0.182617
v 0.008789 0.615234 -0.180664
v 0.008789 0.615234 -0.299805
v 0.008789 0.726562 0.321289
v 0.008789 0.734375 -0.321289
v 0.008789 0.789062 -0.182617
v 0.008789 0.914062 0.297852
v 0.008789 0.919922 0.307617
v 0.008789 0.923828 -0.297852
v 0.008789 0.929688 -0.307617
v 0.008789 0.943359 -0.295898
v 0.008789 0.951172 -0.305664
v 0.008789 0.953125 -0.293945
v 0.008789 0.960938 -0.301758
v 0.008789 0.982422 0.006836
v 0.008789 0.992188 0.006836
v 0.008789 0.382812 -0.180664
v 0.008789 0.382812 -0.299805
v 0.008789 0.132812 -0.299805
v 0.008789 0.128906 -0.307617
v 0.010742 0.500000 -0.297852
v 0.010742 0.613281 0.319336
v 0.010742 0.615234 0.000977
v 0.010742 0.617188 -0.319336
v 0.010742 0.865234 -0.299805
v 0.010742 0.869141 -0.309570
v 0.010742 0.937500 0.295898
v 0.010742 0.945312 0.305664
v 0.010742 0.947266 0.293945
v 0.010742 0.955078 0.288086
v 0.010742 0.955078 0.301758
v 0.010742 0.960938 0.282227
v 0.010742 0.960938 -0.288086
v 0.010742 0.962891 0.297852
v 0.010742 0.966797 -0.282227
v 0.010742 0.968750 0.290039
v 0.010742 0.968750 -0.297852
v 0.010742 0.970703 -0.274414
v 0.010742 0.974609 0.186523
v 0.010742 0.974609 -0.264648
v 0.010742 0.974609 -0.290039
v 0.010742 0.978516 0.114258
v 0.010742 0.978516 -0.245117
v 0.010742 0.980469 -0.104492
v 0.010742 0.980469 -0.180664
v 0.010742 0.980469 -0.282227
v 0.010742 0.984375 0.192383
v 0.010742 0.984375 -0.272461
v 0.010742 0.986328 0.116211
v 0.010742 0.988281 -0.250977
v 0.010742 0.990234 -0.108398
v 0.010742 0.990234 -0.184570
v 0.010742 0.384766 0.319336
v 0.010742 0.382812 0.000977
v 0.010742 0.380859 -0.319336
v 0.010742 0.142578 0.301758
v 0.010742 0.136719 0.311523
v 0.012695 0.500000 0.319336
v 0.012695 0.500000 -0.180664
v 0.012695 0.500000 -0.317383
v 0.012695 0.853516 0.301758
v 0.012695 0.857422 0.309570
v 0.012695 0.964844 0.274414
v 0.012695 0.968750 0.264648
v 0.012695 0.972656 0.239258
v 0.012695 0.972656 0.282227
v 0.012695 0.976562 0.272461
v 0.012695 0.980469 0.247070
v 0.012695 0.494141 0.182617
v 0.014648 0.207031 0.301758
v 0.014648 0.207031 -0.301758
v 0.014648 0.205078 0.311523
v 0.014648 0.205078 -0.311523
v 0.016602 0.500000 0.000977
v 0.016602 0.779297 0.301758
v 0.016602 0.781250 0.311523
v 0.016602 0.787109 -0.301758
v 0.016602 0.789062 -0.311523
v 0.018555 0.724609 0.301758
v 0.018555 0.726562 0.311523
v 0.018555 0.732422 -0.301758
v 0.018555 0.734375 -0.311523
v 0.018555 0.269531 0.301758
v 0.018555 0.267578 0.311523
v 0.018555 0.263672 -0.301758
v 0.018555 0.263672 -0.311523
v 0.020508 0.384766 0.299805
v 0.020508 0.384766 0.309570
v 0.020508 0.380859 -0.299805
v 0.020508 0.380859 -0.309570
v 0.022461 0.500000 0.299805
v 0.022461 0.500000 0.309570
v 0.022461 0.500000 -0.297852
v 0.022461 0.500000 -0.307617
v 0.022461 0.613281 0.299805
v 0.022461 0.613281 0.309570
v 0.022461 0.617188 -0.299805
v 0.022461 0.617188 -0.309570
v -0.000977 0.500000 0.301758
v -0.000977 0.611328 0.299805
v -0.000977 0.615234 0.000977
v -0.000977 0.724609 0.319336
v -0.000977 0.730469 -0.301758
v -0.000977 0.732422 -0.319336
v -0.000977 0.777344 0.301758
v -0.000977 0.789062 -0.182617
v -0.000977 0.867188 0.297852
v -0.000977 0.878906 -0.297852
v -0.000977 0.912109 0.295898
v -0.000977 0.929688 -0.295898
v -0.000977 0.941406 0.293945
v -0.000977 0.949219 -0.291992
v -0.000977 0.951172 0.313477
v -0.000977 0.957031 0.284180
v -0.000977 0.964844 0.266602
v -0.000977 0.964844 -0.282227
v -0.000977 0.968750 0.241211
v -0.000977 0.968750 -0.311523
v -0.000977 0.972656 -0.264648
v -0.000977 0.974609 0.182617
v -0.000977 0.974609 -0.243164
v -0.000977 0.976562 -0.305664
v -0.000977 0.978516 -0.178711
v -0.000977 0.984375 -0.299805
v -0.000977 0.994141 0.110352
v -0.000977 0.996094 -0.190430
v -0.000977 0.998047 -0.110352
v -0.000977 0.382812 0.000977
v -0.000977 0.382812 -0.180664
v -0.000977 0.382812 -0.299805
v -0.000977 0.269531 0.319336
v -0.000977 0.265625 -0.319336
v -0.000977 0.205078 0.321289
v -0.000977 0.205078 -0.321289
v -0.000977 0.134766 0.319336
v -0.002930 0.500000 0.293945
v -0.002930 0.500000 0.305664
v -0.002930 0.500000 -0.291992
v -0.002930 0.500000 -0.303711
v -0.002930 0.607422 0.182617
v -0.002930 0.615234 -0.180664
v -0.002930 0.730469 -0.180664
v -0.002930 0.779297 0.319336
v -0.002930 0.785156 -0.301758
v -0.002930 0.789062 -0.319336
v -0.002930 0.925781 0.315430
v -0.002930 0.935547 -0.315430
v -0.002930 0.957031 -0.313477
v -0.002930 0.976562 0.297852
v -0.002930 0.978516 0.104492
v -0.002930 0.980469 0.290039
v -0.002930 0.980469 -0.104492
v -0.002930 0.984375 0.280273
v -0.002930 0.988281 0.252930
v -0.002930 0.998047 -0.000977
v -0.002930 0.273438 0.301758
v -0.002930 0.267578 -0.184570
v -0.002930 0.267578 -0.301758
v -0.002930 0.125000 -0.317383
v -0.002930 0.103516 0.182617
v -0.002930 0.095703 -0.297852
v -0.004883 0.609375 0.293945
v -0.004883 0.611328 0.305664
v -0.004883 0.613281 -0.293945
v -0.004883 0.615234 -0.303711
v -0.004883 0.730469 0.000977
v -0.004883 0.861328 0.319336
v -0.004883 0.873047 -0.319336
v -0.004883 0.880859 0.182617
v -0.004883 0.951172 0.313477
v -0.004883 0.960938 0.311523
v -0.004883 0.970703 0.305664
v -0.004883 0.976562 -0.305664
v -0.004883 0.984375 -0.299805
v -0.004883 0.988281 -0.290039
v -0.004883 0.990234 0.198242
v -0.004883 0.990234 -0.280273
v -0.004883 0.994141 0.110352
v -0.004883 0.994141 -0.256836
v -0.004883 0.996094 -0.190430
v -0.004883 0.386719 0.293945
v -0.004883 0.386719 0.299805
v -0.004883 0.386719 0.305664
v -0.004883 0.384766 -0.293945
v -0.004883 0.382812 -0.303711
v -0.004883 0.380859 0.182617
v -0.004883 0.267578 0.000977
v -0.004883 0.267578 0.182617
v -0.004883 0.210938 0.301758
v -0.004883 0.208984 0.000977
v -0.004883 0.208984 0.182617
v -0.004883 0.208984 -0.301758
v -0.004883 0.207031 -0.182617
v -0.004883 0.205078 0.319336
v -0.004883 0.205078 -0.319336
v -0.004883 0.134766 0.319336
v -0.004883 0.091797 0.297852
v -0.004883 0.072266 0.315430
v -0.004883 0.046875 0.313477
v -0.006836 0.718750 0.182617
v -0.006836 0.718750 0.295898
v -0.006836 0.722656 0.301758
v -0.006836 0.722656 0.307617
v -0.006836 0.728516 -0.295898
v -0.006836 0.730469 -0.307617
v -0.006836 0.777344 0.182617
v -0.006836 0.789062 0.000977
v -0.006836 0.925781 0.315430
v -0.006836 0.957031 -0.313477
v -0.006836 0.968750 -0.311523
v -0.006836 0.980469 0.000977
v -0.006836 0.980469 0.278320
v -0.006836 0.984375 0.250977
v -0.006836 0.998047 -0.000977
v -0.006836 0.998047 -0.110352
v -0.006836 0.269531 -0.295898
v -0.006836 0.267578 -0.307617
v -0.006836 0.125000 -0.317383
v -0.006836 0.064453 -0.315430
v -0.006836 0.050781 0.291992
v -0.006836 0.042969 -0.290039
v -0.006836 0.039062 0.282227
v -0.006836 0.039062 -0.313477
v -0.006836 0.037109 0.311523
v -0.006836 0.033203 0.268555
v -0.006836 0.029297 0.241211
v -0.006836 0.029297 -0.276367
v -0.006836 0.027344 0.305664
v -0.006836 0.027344 -0.309570
v -0.006836 0.025391 -0.264648
v -0.006836 0.023438 0.182617
v -0.006836 0.023438 -0.243164
v -0.006836 0.019531 0.297852
v -0.006836 0.019531 -0.182617
v -0.006836 0.019531 -0.305664
v -0.006836 0.017578 0.000977
v -0.006836 0.013672 0.290039
v -0.006836 0.011719 0.278320
v -0.006836 0.011719 -0.297852
v -0.006836 0.007812 0.252930
v -0.006836 0.007812 -0.288086
v -0.006836 0.005859 0.186523
v -0.006836 0.003906 -0.278320
v -0.006836 0.001953 0.106445
v -0.006836 0.001953 -0.252930
v -0.006836 0.000000 -0.000977
v -0.006836 0.000000 -0.106445
v -0.006836 0.000000 -0.184570
v -0.008789 0.773438 0.295898
v -0.008789 0.777344 0.301758
v -0.008789 0.859375 0.317383
v -0.008789 0.867188 0.297852
v -0.008789 0.871094 -0.315430
v -0.008789 0.878906 -0.297852
v -0.008789 0.912109 0.295898
v -0.008789 0.929688 -0.295898
v -0.008789 0.935547 -0.315430
v -0.008789 0.941406 0.293945
v -0.008789 0.949219 -0.291992
v -0.008789 0.957031 0.284180
v -0.008789 0.958984 0.307617
v -0.008789 0.964844 0.266602
v -0.008789 0.964844 -0.282227
v -0.008789 0.966797 0.303711
v -0.008789 0.968750 0.241211
v -0.008789 0.972656 0.295898
v -0.008789 0.972656 -0.264648
v -0.008789 0.972656 -0.303711
v -0.008789 0.974609 0.182617
v -0.008789 0.974609 -0.243164
v -0.008789 0.978516 0.288086
v -0.008789 0.978516 -0.178711
v -0.008789 0.980469 -0.295898
v -0.008789 0.984375 -0.288086
v -0.008789 0.988281 0.196289
v -0.008789 0.988281 -0.278320
v -0.008789 0.992188 -0.256836
v -0.008789 0.994141 -0.190430
v -0.008789 0.275391 0.295898
v -0.008789 0.273438 0.307617
v -0.008789 0.136719 0.317383
v -0.008789 0.097656 0.000977
v -0.008789 0.097656 -0.184570
v -0.010742 0.775391 0.307617
v -0.010742 0.781250 -0.295898
v -0.010742 0.785156 -0.307617
v -0.010742 0.890625 -0.182617
v -0.010742 0.923828 0.313477
v -0.010742 0.949219 0.311523
v -0.010742 0.955078 -0.311523
v -0.010742 0.964844 -0.307617
v -0.010742 0.978516 0.104492
v -0.010742 0.992188 0.110352
v -0.010742 0.994141 -0.110352
v -0.010742 0.996094 -0.000977
v -0.010742 0.214844 0.295898
v -0.010742 0.212891 -0.295898
v -0.010742 0.210938 0.307617
v -0.010742 0.210938 -0.305664
v -0.010742 0.126953 -0.315430
v -0.010742 0.103516 0.182617
v -0.010742 0.095703 -0.297852
v -0.010742 0.072266 0.315430
v -0.010742 0.064453 -0.315430
v -0.010742 0.046875 0.313477
v -0.010742 0.039062 -0.313477
v -0.010742 0.037109 0.311523
v -0.010742 0.027344 0.305664
v -0.010742 0.027344 -0.309570
v -0.010742 0.019531 0.297852
v -0.010742 0.019531 -0.305664
v -0.010742 0.013672 0.290039
v -0.010742 0.011719 0.278320
v -0.010742 0.011719 -0.297852
v -0.010742 0.007812 0.252930
v -0.010742 0.007812 -0.288086
v -0.010742 0.005859 0.186523
v -0.010742 0.003906 -0.278320
v -0.010742 0.001953 0.106445
v -0.010742 0.001953 -0.252930
v -0.010742 0.000000 -0.000977
v -0.010742 0.000000 -0.106445
v -0.010742 0.000000 -0.184570
v -0.012695 0.890625 0.000977
v -0.012695 0.933594 -0.313477
v -0.014648 0.847656 0.293945
v -0.014648 0.853516 0.305664
v -0.014648 0.859375 -0.291992
v -0.014648 0.863281 -0.303711
v -0.014648 0.951172 0.276367
v -0.014648 0.955078 0.268555
v -0.014648 0.955078 0.291992
v -0.014648 0.957031 0.260742
v -0.014648 0.960938 0.237305
v -0.014648 0.960938 0.286133
v -0.014648 0.964844 0.184570
v -0.014648 0.964844 0.278320
v -0.014648 0.968750 0.268555
v -0.014648 0.972656 0.245117
v -0.014648 0.974609 0.190430
v -0.014648 0.980469 0.000977
v -0.014648 0.148438 0.295898
v -0.014648 0.142578 0.305664
v -0.014648 0.097656 0.000977
v -0.014648 0.097656 -0.184570
v -0.014648 0.091797 0.297852
v -0.014648 0.074219 0.313477
v -0.014648 0.066406 -0.311523
v -0.014648 0.050781 0.291992
v -0.014648 0.050781 0.311523
v -0.014648 0.042969 -0.290039
v -0.014648 0.041016 -0.309570
v -0.014648 0.039062 0.282227
v -0.014648 0.039062 0.307617
v -0.014648 0.033203 0.268555
v -0.014648 0.031250 0.303711
v -0.014648 0.031250 -0.307617
v -0.014648 0.029297 0.241211
v -0.014648 0.029297 -0.276367
v -0.014648 0.025391 -0.264648
v -0.014648 0.023438 0.182617
v -0.014648 0.023438 0.295898
v -0.014648 0.023438 -0.243164
v -0.014648 0.021484 -0.301758
v -0.014648 0.019531 -0.182617
v -0.014648 0.017578 0.000977
v -0.014648 0.017578 0.288086
v -0.014648 0.015625 0.278320
v -0.014648 0.015625 -0.295898
v -0.014648 0.011719 0.250977
v -0.014648 0.009766 0.186523
v -0.014648 0.009766 -0.286133
v -0.014648 0.007812 -0.276367
v -0.014648 0.005859 0.106445
v -0.014648 0.005859 -0.250977
v -0.014648 0.003906 -0.184570
v -0.014648 0.001953 -0.000977
v -0.014648 0.001953 -0.106445
v -0.016602 0.880859 0.182617
v -0.016602 0.908203 0.290039
v -0.016602 0.914062 0.301758
v -0.016602 0.931641 0.288086
v -0.016602 0.937500 0.299805
v -0.016602 0.939453 0.286133
v -0.016602 0.945312 -0.284180
v -0.016602 0.947266 0.282227
v -0.016602 0.947266 0.295898
v -0.016602 0.953125 -0.280273
v -0.016602 0.953125 -0.295898
v -0.016602 0.957031 -0.274414
v -0.016602 0.960938 -0.266602
v -0.016602 0.960938 -0.291992
v -0.016602 0.964844 -0.258789
v -0.016602 0.966797 0.114258
v -0.016602 0.966797 -0.241211
v -0.016602 0.966797 -0.284180
v -0.016602 0.968750 -0.178711
v -0.016602 0.970703 -0.104492
v -0.016602 0.970703 -0.276367
v -0.016602 0.974609 -0.266602
v -0.016602 0.978516 0.108398
v -0.016602 0.978516 -0.247070
v -0.016602 0.980469 -0.106445
v -0.016602 0.980469 -0.184570
v -0.016602 0.140625 -0.290039
v -0.018555 0.916016 -0.290039
v -0.018555 0.923828 -0.301758
v -0.018555 0.935547 -0.288086
v -0.018555 0.943359 -0.297852
v -0.018555 0.970703 -0.002930
v -0.018555 0.982422 -0.002930
v -0.018555 0.134766 -0.301758
v -0.018555 0.091797 0.291992
v -0.020508 0.083984 0.301758
v -0.020508 0.083984 -0.286133
v -0.020508 0.076172 -0.297852
v -0.020508 0.072266 0.288086
v -0.020508 0.062500 0.286133
v -0.020508 0.062500 0.299805
v -0.020508 0.062500 -0.284180
v -0.020508 0.054688 0.282227
v -0.020508 0.054688 -0.295898
v -0.020508 0.052734 0.297852
v -0.020508 0.052734 -0.280273
v -0.020508 0.048828 0.276367
v -0.020508 0.046875 -0.276367
v -0.020508 0.044922 0.268555
v -0.020508 0.044922 0.291992
v -0.020508 0.044922 -0.291992
v -0.020508 0.042969 0.260742
v -0.020508 0.041016 -0.270508
v -0.020508 0.039062 0.286133
v -0.020508 0.037109 0.237305
v -0.020508 0.037109 -0.262695
v -0.020508 0.035156 0.176758
v -0.020508 0.035156 -0.254883
v -0.020508 0.035156 -0.288086
v -0.020508 0.033203 0.278320
v -0.020508 0.033203 -0.233398
v -0.020508 0.031250 0.100586
v -0.020508 0.031250 0.268555
v -0.020508 0.029297 -0.002930
v -0.020508 0.029297 -0.100586
v -0.020508 0.029297 -0.172852
v -0.020508 0.029297 -0.282227
v -0.020508 0.025391 0.243164
v -0.020508 0.025391 -0.272461
v -0.020508 0.023438 0.180664
v -0.020508 0.023438 -0.262695
v -0.020508 0.021484 -0.241211
v -0.020508 0.019531 0.102539
v -0.020508 0.017578 -0.002930
v -0.020508 0.017578 -0.102539
v -0.020508 0.017578 -0.176758
v -0.022461 0.890625 0.000977
vt 0.695801 0.925049
vt 0.671143 0.944092
vt 0.668945 0.920410
vt 0.693848 0.947021
vt 0.728271 0.969727
vt 0.671631 0.967041
vt 0.634277 0.947266
vt 0.632812 0.971191
vt 0.635010 0.922852
vt 0.625000 0.947021
vt 0.623047 0.970459
vt 0.626709 0.923096
vt 0.635986 0.900635
vt 0.628418 0.901123
vt 0.613037 0.949463
vt 0.609375 0.967529
vt 0.572266 0.952637
vt 0.573486 0.930908
vt 0.614258 0.924805
vt 0.575928 0.903809
vt 0.616455 0.901611
vt 0.577148 0.879395
vt 0.618164 0.878418
vt 0.552002 0.847900
vt 0.628906 0.872803
vt 0.601074 0.845703
vt 0.635742 0.871094
vt 0.621582 0.844727
vt 0.669434 0.892822
vt 0.675293 0.871582
vt 0.658447 0.842773
vt 0.699219 0.877930
vt 0.695068 0.900635
vt 0.750244 0.914795
vt 0.751465 0.893311
vt 0.755615 0.875732
vt 0.043701 0.533936
vt 0.051025 0.545410
vt 0.038818 0.546875
vt 0.043701 0.577393
vt 0.030029 0.534668
vt 0.041504 0.515869
vt 0.055176 0.575684
vt 0.031738 0.518799
vt 0.084717 0.587402
vt 0.060791 0.582520
vt 0.060791 0.595703
vt 0.053955 0.591309
vt 0.040771 0.511475
vt 0.006592 0.540039
vt 0.002930 0.522705
vt 0.027344 0.548096
vt 0.001953 0.552734
vt 0.008789 0.584229
vt 0.030518 0.512207
vt 0.000244 0.516357
vt 0.039307 0.505127
vt 0.027344 0.506836
vt 0.033203 0.580566
vt 0.034912 0.594482
vt 0.010986 0.596924
vt 0.017822 0.611084
vt 0.041748 0.608643
vt 0.017090 0.615723
vt 0.044922 0.593750
vt 0.053467 0.608643
vt 0.133301 0.599609
vt 0.147705 0.604492
vt 0.152832 0.663330
vt 0.158203 0.608887
vt 0.163086 0.667725
vt 0.160645 0.731689
vt 0.138672 0.662354
vt 0.127441 0.599854
vt 0.146729 0.730713
vt 0.134766 0.662598
vt 0.123047 0.601807
vt 0.141113 0.732910
vt 0.130371 0.664551
vt 0.110352 0.611816
vt 0.136719 0.732910
vt 0.117432 0.670654
vt 0.123779 0.739014
vt 0.111816 0.743652
vt 0.108154 0.677002
vt 0.100830 0.620361
vt 0.073975 0.618164
vt 0.081787 0.674072
vt 0.085205 0.738770
vt 0.075439 0.737549
vt 0.759277 0.055420
vt 0.763672 0.056396
vt 0.758789 0.083496
vt 0.753174 0.054199
vt 0.775146 0.059326
vt 0.775635 0.086426
vt 0.763184 0.084229
vt 0.776367 0.136230
vt 0.752197 0.083008
vt 0.750488 0.054932
vt 0.759033 0.135742
vt 0.763184 0.135742
vt 0.776611 0.186768
vt 0.762695 0.187256
vt 0.758545 0.187256
vt 0.752930 0.135742
vt 0.752441 0.187012
vt 0.750244 0.135254
vt 0.749756 0.186768
vt 0.750488 0.082764
vt 0.748779 0.054688
vt 0.747803 0.135254
vt 0.747803 0.186768
vt 0.748535 0.083496
vt 0.742676 0.057129
vt 0.742920 0.135986
vt 0.741943 0.186768
vt 0.737549 0.135986
vt 0.736816 0.186523
vt 0.742188 0.084961
vt 0.736816 0.085938
vt 0.737549 0.058838
vt 0.064453 0.169189
vt 0.070557 0.169189
vt 0.070557 0.219727
vt 0.074707 0.169189
vt 0.086426 0.169189
vt 0.087158 0.218018
vt 0.074707 0.219727
vt 0.087891 0.266846
vt 0.063721 0.219727
vt 0.061768 0.169189
vt 0.069580 0.270264
vt 0.073975 0.269531
vt 0.085449 0.291748
vt 0.072266 0.294189
vt 0.067871 0.294922
vt 0.062500 0.270264
vt 0.060547 0.294678
vt 0.060059 0.270264
vt 0.058838 0.294678
vt 0.062012 0.219727
vt 0.059814 0.169189
vt 0.058105 0.269531
vt 0.056885 0.293945
vt 0.059570 0.219727
vt 0.053955 0.169189
vt 0.053955 0.218750
vt 0.048828 0.169189
vt 0.048828 0.218018
vt 0.047119 0.266357
vt 0.052246 0.268311
vt 0.050781 0.291992
vt 0.045898 0.290771
vt 0.156982 0.101074
vt 0.155518 0.086914
vt 0.226318 0.080566
vt 0.153076 0.077881
vt 0.231445 0.094482
vt 0.157471 0.104736
vt 0.284180 0.075684
vt 0.232178 0.099854
vt 0.291260 0.088379
vt 0.156250 0.109131
vt 0.291748 0.092041
vt 0.222168 0.073486
vt 0.278320 0.066895
vt 0.272705 0.043457
vt 0.216309 0.046875
vt 0.147461 0.053467
vt 0.147949 0.041992
vt 0.230957 0.104248
vt 0.290527 0.096436
vt 0.154297 0.122559
vt 0.227051 0.117188
vt 0.282959 0.110352
vt 0.222656 0.128662
vt 0.279053 0.126465
vt 0.270996 0.956055
vt 0.268311 0.972168
vt 0.243896 0.960205
vt 0.268555 0.984375
vt 0.245850 0.973389
vt 0.233398 0.956543
vt 0.235352 0.968262
vt 0.246582 0.943848
vt 0.273193 0.952393
vt 0.236328 0.940674
vt 0.248779 0.940186
vt 0.277100 0.949219
vt 0.239502 0.935059
vt 0.253662 0.935547
vt 0.292725 0.941162
vt 0.243652 0.930176
vt 0.270996 0.928223
vt 0.262695 0.920898
vt 0.281982 0.919678
vt 0.303711 0.932373
vt 0.313232 0.904785
vt 0.298584 0.893066
vt 0.275391 0.914062
vt 0.290527 0.886230
vt 0.269531 0.906738
vt 0.257080 0.912354
vt 0.281738 0.880615
vt 0.268311 0.899170
vt 0.166992 0.616211
vt 0.161865 0.594482
vt 0.185547 0.611328
vt 0.172363 0.648682
vt 0.180664 0.583496
vt 0.195068 0.641113
vt 0.175049 0.662598
vt 0.204834 0.601074
vt 0.197998 0.575928
vt 0.161377 0.526367
vt 0.178955 0.515625
vt 0.199219 0.653809
vt 0.182861 0.675537
vt 0.214355 0.632080
vt 0.222412 0.590576
vt 0.217041 0.567139
vt 0.193359 0.502197
vt 0.235352 0.554199
vt 0.243652 0.577881
vt 0.232910 0.625000
vt 0.217773 0.640381
vt 0.254150 0.614990
vt 0.298828 0.564209
vt 0.236084 0.632812
vt 0.257324 0.622803
vt 0.299072 0.626709
vt 0.243896 0.644287
vt 0.224121 0.655273
vt 0.201904 0.666260
vt 0.216309 0.698486
vt 0.195557 0.713135
vt 0.042969 0.334229
vt 0.068848 0.323242
vt 0.071045 0.343994
vt 0.104980 0.344727
vt 0.037842 0.355713
vt 0.102539 0.370361
vt 0.065674 0.365234
vt 0.028809 0.373779
vt 0.056152 0.390137
vt 0.094482 0.399658
vt 0.049316 0.437988
vt 0.107422 0.395752
vt 0.149658 0.428467
vt 0.167236 0.480469
vt 0.159668 0.486328
vt 0.147217 0.465576
vt 0.131836 0.477295
vt 0.066162 0.461914
vt 0.057861 0.475830
vt 0.057861 0.513916
vt 0.146240 0.447021
vt 0.166748 0.436035
vt 0.069092 0.445068
vt 0.144287 0.441650
vt 0.165039 0.423096
vt 0.067627 0.437500
vt 0.145264 0.436035
vt 0.125488 0.520264
vt 0.156494 0.530029
vt 0.158691 0.548340
vt 0.130127 0.539307
vt 0.058350 0.529541
vt 0.137207 0.559326
vt 0.059082 0.551025
vt 0.058594 0.556152
vt 0.015869 0.423096
vt 0.015869 0.459961
vt 0.008301 0.425049
vt 0.038330 0.621582
vt 0.043701 0.618408
vt 0.038574 0.660400
vt 0.023438 0.620361
vt 0.022461 0.660400
vt 0.039795 0.725342
vt 0.023438 0.719727
vt 0.044922 0.663818
vt 0.046143 0.725342
vt 0.054932 0.724365
vt 0.053223 0.662842
vt 0.051758 0.615234
vt 0.057373 0.724365
vt 0.056641 0.662598
vt 0.054199 0.614014
vt 0.059570 0.724121
vt 0.058594 0.662598
vt 0.057373 0.613770
vt 0.066406 0.719482
vt 0.066162 0.658691
vt 0.063721 0.616699
vt 0.071777 0.719238
vt 0.069336 0.619385
vt 0.070557 0.659424
vt 0.059570 0.855469
vt 0.042725 0.850098
vt 0.042725 0.792236
vt 0.059082 0.791992
vt 0.041504 0.749756
vt 0.058350 0.748535
vt 0.065186 0.855469
vt 0.063721 0.746094
vt 0.064697 0.789795
vt 0.072510 0.851318
vt 0.072754 0.788818
vt 0.071289 0.742920
vt 0.074707 0.851318
vt 0.075928 0.788818
vt 0.073486 0.743164
vt 0.077393 0.851318
vt 0.079102 0.788818
vt 0.075928 0.743164
vt 0.086182 0.850342
vt 0.087402 0.791260
vt 0.085205 0.746582
vt 0.094238 0.750000
vt 0.093018 0.792236
vt 0.092773 0.850342
vt 0.055420 0.132080
vt 0.050293 0.041748
vt 0.055420 0.041992
vt 0.047607 0.131836
vt 0.054443 0.164307
vt 0.044434 0.041748
vt 0.071045 0.124756
vt 0.072754 0.154297
vt 0.073242 0.034668
vt 0.041748 0.131836
vt 0.044678 0.164062
vt 0.023193 0.033691
vt 0.020508 0.118408
vt 0.036865 0.161133
vt 0.084473 0.117676
vt 0.086914 0.145264
vt 0.086670 0.030029
vt 0.125732 0.136719
vt 0.124756 0.113770
vt 0.126709 0.029053
vt 0.142578 0.036865
vt 0.141357 0.118164
vt 0.140381 0.145020
vt 0.319824 0.814209
vt 0.378662 0.850342
vt 0.336670 0.841309
vt 0.366455 0.873535
vt 0.327881 0.867188
vt 0.361328 0.895996
vt 0.320557 0.890869
vt 0.379883 0.875244
vt 0.374268 0.898926
vt 0.357178 0.922363
vt 0.317383 0.918945
vt 0.348389 0.940430
vt 0.363770 0.942383
vt 0.370605 0.920898
vt 0.377686 0.945068
vt 0.379883 0.922607
vt 0.416016 0.946777
vt 0.382080 0.899414
vt 0.415527 0.924316
vt 0.442627 0.926758
vt 0.445557 0.903564
vt 0.507812 0.935303
vt 0.421631 0.900146
vt 0.392578 0.874756
vt 0.385986 0.849609
vt 0.357666 0.822754
vt 0.404785 0.850586
vt 0.373779 0.816650
vt 0.424561 0.874512
vt 0.431396 0.849854
vt 0.422363 0.811768
vt 0.458740 0.857178
vt 0.451416 0.881348
vt 0.518066 0.892578
vt 0.525391 0.870850
vt 0.547852 0.889648
vt 0.541992 0.913574
vt 0.510986 0.915527
vt 0.537598 0.931396
vt 0.513672 0.944824
vt 0.527100 0.937988
vt 0.527344 0.945312
vt 0.511230 0.955322
vt 0.482666 0.939453
vt 0.526123 0.954346
vt 0.543701 0.948242
vt 0.541748 0.958008
vt 0.481445 0.950439
vt 0.471436 0.943359
vt 0.511230 0.967529
vt 0.523682 0.965332
vt 0.538574 0.981201
vt 0.543213 0.980957
vt 0.523438 0.988525
vt 0.508789 0.990723
vt 0.479736 0.961670
vt 0.476074 0.985352
vt 0.466309 0.977539
vt 0.468994 0.954102
vt 0.455322 0.938477
vt 0.453125 0.949951
vt 0.450195 0.974365
vt 0.448975 0.937988
vt 0.448975 0.948975
vt 0.443848 0.974365
vt 0.442383 0.940186
vt 0.444092 0.949219
vt 0.682861 0.185547
vt 0.673584 0.180420
vt 0.682617 0.129395
vt 0.695801 0.191162
vt 0.647217 0.174316
vt 0.648926 0.121826
vt 0.673584 0.125977
vt 0.650146 0.049072
vt 0.672607 0.053467
vt 0.681641 0.054932
vt 0.695312 0.132812
vt 0.701172 0.191406
vt 0.695557 0.056641
vt 0.700684 0.133057
vt 0.705322 0.189941
vt 0.699219 0.056885
vt 0.705811 0.131836
vt 0.717773 0.181641
vt 0.703369 0.055420
vt 0.718262 0.125244
vt 0.716553 0.052734
vt 0.728760 0.049561
vt 0.729248 0.122070
vt 0.729004 0.174805
vt 0.773926 0.020264
vt 0.773682 0.021973
vt 0.748779 0.021973
vt 0.748535 0.028076
vt 0.772461 0.028809
vt 0.771484 0.032959
vt 0.749023 0.019531
vt 0.773193 0.018311
vt 0.697021 0.027588
vt 0.748291 0.017334
vt 0.771729 0.011963
vt 0.697266 0.019287
vt 0.697510 0.017578
vt 0.645996 0.016602
vt 0.645508 0.024170
vt 0.645996 0.013916
vt 0.697754 0.014404
vt 0.646240 0.011963
vt 0.747559 0.011475
vt 0.697021 0.008545
vt 0.646484 0.006348
vt 0.646484 0.004150
vt 0.696289 0.004639
vt 0.746826 0.006348
vt 0.770264 0.006836
vt 0.696777 0.031738
vt 0.645264 0.028564
vt 0.645508 0.044434
vt 0.695312 0.044189
vt 0.747559 0.032471
vt 0.745850 0.043945
vt 0.769043 0.045410
vt 0.592041 0.030273
vt 0.592285 0.036377
vt 0.539795 0.036377
vt 0.592285 0.040771
vt 0.592285 0.052246
vt 0.541504 0.052246
vt 0.540039 0.040771
vt 0.490723 0.052246
vt 0.488281 0.040771
vt 0.465820 0.053711
vt 0.463379 0.041016
vt 0.462402 0.036865
vt 0.488281 0.036377
vt 0.539795 0.030273
vt 0.592041 0.027588
vt 0.488281 0.029541
vt 0.461670 0.030518
vt 0.539795 0.027588
vt 0.592041 0.025635
vt 0.488037 0.027832
vt 0.462402 0.027832
vt 0.539551 0.025146
vt 0.592041 0.019775
vt 0.489014 0.025879
vt 0.462402 0.025879
vt 0.540527 0.019287
vt 0.541504 0.014893
vt 0.592041 0.014648
vt 0.490723 0.015381
vt 0.489746 0.020020
vt 0.464844 0.019287
vt 0.465820 0.014648
vt 0.127197 0.751709
vt 0.140137 0.748291
vt 0.147705 0.821533
vt 0.149170 0.745850
vt 0.133545 0.827148
vt 0.121338 0.750732
vt 0.153320 0.877930
vt 0.129883 0.827881
vt 0.139404 0.885498
vt 0.117188 0.751709
vt 0.135742 0.885986
vt 0.125488 0.826904
vt 0.102295 0.748779
vt 0.130371 0.885254
vt 0.109375 0.822266
vt 0.097412 0.818359
vt 0.114746 0.878662
vt 0.101562 0.873047
vt 0.154785 0.817383
vt 0.160400 0.871826
vt 0.185547 0.864746
vt 0.180908 0.810059
vt 0.174072 0.740234
vt 0.183594 0.740234
vt 0.905273 0.017090
vt 0.915283 0.013428
vt 0.899902 0.042236
vt 0.887695 0.019043
vt 0.881836 0.046143
vt 0.883545 0.018066
vt 0.877686 0.045166
vt 0.881348 0.059570
vt 0.898438 0.055176
vt 0.910645 0.036621
vt 0.910889 0.050049
vt 0.941895 0.035645
vt 0.946777 0.012451
vt 0.958252 0.022461
vt 0.941162 0.047119
vt 0.943115 0.054688
vt 0.910645 0.059570
vt 0.955811 0.051270
vt 0.959717 0.061768
vt 0.956543 0.039795
vt 0.977295 0.060547
vt 0.972412 0.055176
vt 0.983643 0.059814
vt 0.972900 0.027344
vt 0.978516 0.056885
vt 0.979004 0.029053
vt 0.457275 0.063965
vt 0.445557 0.042236
vt 0.466064 0.063477
vt 0.467041 0.083008
vt 0.458984 0.084717
vt 0.444824 0.063965
vt 0.446777 0.090332
vt 0.500244 0.082275
vt 0.498535 0.057861
vt 0.522949 0.060547
vt 0.527344 0.078125
vt 0.463623 0.108887
vt 0.451904 0.111084
vt 0.471191 0.107422
vt 0.504639 0.099609
vt 0.471191 0.132812
vt 0.462158 0.136230
vt 0.479004 0.130615
vt 0.513184 0.123535
vt 0.476807 0.155518
vt 0.465576 0.157471
vt 0.448730 0.191650
vt 0.486816 0.155518
vt 0.461670 0.191895
vt 0.522217 0.146729
vt 0.525391 0.184326
vt 0.540039 0.119873
vt 0.547852 0.141113
vt 0.608154 0.115967
vt 0.598877 0.098633
vt 0.531494 0.096680
vt 0.591553 0.076660
vt 0.590088 0.058105
vt 0.796875 0.132812
vt 0.796387 0.110840
vt 0.840820 0.120117
vt 0.838867 0.099854
vt 0.793457 0.092773
vt 0.834473 0.081543
vt 0.792236 0.067139
vt 0.867920 0.076904
vt 0.873047 0.093018
vt 0.868408 0.055176
vt 0.836426 0.057861
vt 0.873291 0.037354
vt 0.796387 0.045654
vt 0.842041 0.036621
vt 0.812500 0.000000
vt 0.156982 0.900879
vt 0.145020 0.910156
vt 0.127930 0.890869
vt 0.117676 0.903076
vt 0.052979 0.869141
vt 0.043213 0.878906
vt 0.031738 0.914062
vt 0.102295 0.934326
vt 0.127441 0.941895
vt 0.130859 0.958740
vt 0.106445 0.951172
vt 0.031494 0.929199
vt 0.034424 0.949463
vt 0.109863 0.974365
vt 0.032227 0.955811
vt 0.110840 0.981934
vt 0.140381 0.979248
vt 0.030762 0.960449
vt 0.109375 0.986328
vt 0.140137 0.991455
vt 0.021240 0.975342
vt 0.095215 1.000000
vt 0.138428 0.996826
vt 0.900391 0.999756
vt 0.898193 0.993408
vt 0.938721 0.998779
vt 0.937500 0.992432
vt 0.990479 0.997314
vt 0.990234 0.990967
vt 0.990967 0.981934
vt 0.935303 0.983643
vt 0.893799 0.985596
vt 0.990967 0.979736
vt 0.935059 0.981201
vt 0.893799 0.982666
vt 0.990967 0.977539
vt 0.935059 0.979248
vt 0.893799 0.980713
vt 0.990723 0.970703
vt 0.935791 0.972168
vt 0.895508 0.973145
vt 0.990479 0.964355
vt 0.898438 0.967773
vt 0.936523 0.965820
vt 0.989014 0.949463
vt 0.937012 0.950684
vt 0.898682 0.952637
vt 0.339600 0.968994
vt 0.339600 0.966797
vt 0.396484 0.966797
vt 0.396484 0.964600
vt 0.339600 0.964600
vt 0.396729 0.969727
vt 0.338867 0.978027
vt 0.438965 0.964600
vt 0.438965 0.967529
vt 0.437012 0.957520
vt 0.438965 0.970459
vt 0.395508 0.957031
vt 0.434326 0.951172
vt 0.339844 0.957520
vt 0.393799 0.951904
vt 0.339844 0.951416
vt 0.394775 0.977783
vt 0.436035 0.978516
vt 0.434326 0.985107
vt 0.393799 0.983887
vt 0.339111 0.984375
vt 0.340088 0.999268
vt 0.393066 0.999023
vt 0.433594 1.000000
vt 0.406006 0.034668
vt 0.410645 0.052490
vt 0.326660 0.052490
vt 0.333740 0.066162
vt 0.417480 0.068848
vt 0.316650 0.033203
vt 0.406006 0.029297
vt 0.292236 0.055664
vt 0.299316 0.069336
vt 0.302246 0.106201
vt 0.316895 0.027832
vt 0.282227 0.032471
vt 0.406006 0.021729
vt 0.319336 0.020264
vt 0.282471 0.024170
vt 0.413574 0.001465
vt 0.329590 0.000000
vt 0.282471 0.015869
vt 0.331787 0.121826
vt 0.296875 0.124512
vt 0.334717 0.104248
vt 0.410645 0.122803
vt 0.416016 0.106689
vt 0.163818 0.877197
vt 0.191406 0.885742
vt 0.164551 0.894043
vt 0.193359 0.906250
vt 0.161621 0.911865
vt 0.186523 0.925293
vt 0.802246 0.701172
vt 0.855225 0.673340
vt 0.854736 0.701172
vt 0.858398 0.701416
vt 0.802490 0.675049
vt 0.722168 0.673828
vt 0.859619 0.673584
vt 0.855225 0.622559
vt 0.803467 0.624512
vt 0.723145 0.622070
vt 0.804199 0.573730
vt 0.723877 0.569824
vt 0.856934 0.572021
vt 0.859619 0.623047
vt 0.860352 0.572266
vt 0.916748 0.577637
vt 0.914551 0.628174
vt 0.997070 0.578369
vt 0.994873 0.631104
vt 0.992432 0.682617
vt 0.912109 0.678711
vt 0.910889 0.704834
vt 0.312988 0.649414
vt 0.312988 0.529785
vt 0.431641 0.643555
vt 0.417969 0.528076
vt 0.312744 0.657227
vt 0.431396 0.653320
vt 0.427246 0.769531
vt 0.322510 0.776367
vt 0.821045 0.782227
vt 0.824463 0.832031
vt 0.821045 0.832031
vt 0.768066 0.833740
vt 0.687988 0.829590
vt 0.688965 0.778076
vt 0.769043 0.782959
vt 0.689697 0.726562
vt 0.770752 0.732910
vt 0.690918 0.700439
vt 0.823486 0.732422
vt 0.824463 0.708008
vt 0.771729 0.706543
vt 0.824463 0.782227
vt 0.826904 0.732422
vt 0.827881 0.708008
vt 0.875000 0.707031
vt 0.875488 0.733154
vt 0.876221 0.782959
vt 0.877197 0.833740
vt 0.956543 0.778076
vt 0.957520 0.829834
vt 0.955811 0.726562
vt 0.955322 0.700439
vt 0.472412 0.420166
vt 0.522949 0.420166
vt 0.522949 0.500977
vt 0.472412 0.500977
vt 0.573730 0.420166
vt 0.472412 0.552979
vt 0.573730 0.500977
vt 0.599365 0.501709
vt 0.522949 0.553711
vt 0.472168 0.556396
vt 0.597656 0.554688
vt 0.573730 0.554688
vt 0.522949 0.557373
vt 0.520996 0.610107
vt 0.470459 0.608398
vt 0.467529 0.688965
vt 0.518311 0.690918
vt 0.569092 0.692627
vt 0.573486 0.558105
vt 0.597656 0.558105
vt 0.571777 0.611816
vt 0.597656 0.611816
vt 1.000000 0.462402
vt 1.000000 0.514404
vt 0.920166 0.514404
vt 0.920166 0.462402
vt 1.000000 0.411133
vt 0.868652 0.514404
vt 0.918457 0.411133
vt 1.000000 0.385010
vt 0.867676 0.462402
vt 0.863525 0.462646
vt 0.865234 0.514648
vt 0.866943 0.411133
vt 0.919189 0.384277
vt 0.866699 0.385254
vt 0.863037 0.385254
vt 0.861816 0.411377
vt 0.808105 0.387207
vt 0.810303 0.414062
vt 0.811035 0.465332
vt 0.813721 0.517334
vt 0.728760 0.418213
vt 0.727539 0.392090
vt 0.731445 0.469482
vt 0.733887 0.521484
vt 0.595703 0.445068
vt 0.720947 0.418213
vt 0.714355 0.448975
vt 0.604736 0.500732
vt 0.711670 0.505371
vt 0.619629 0.551514
vt 0.718018 0.551025
vt 0.661621 0.555908
vt 0.720459 0.554199
vt 0.620605 0.557861
vt 0.711670 0.605469
vt 0.604736 0.610107
vt 0.714355 0.661621
vt 0.595703 0.665771
vt 0.720947 0.692383
vt 0.469971 0.312744
vt 0.500977 0.312744
vt 0.500977 0.409912
vt 0.556885 0.409912
vt 0.560059 0.312744
vt 0.602539 0.312744
vt 0.599365 0.409912
vt 0.603516 0.410156
vt 0.606689 0.312988
vt 0.648926 0.315674
vt 0.645752 0.412842
vt 0.708252 0.319824
vt 0.701660 0.416748
vt 0.739014 0.321777
vt 0.764648 0.380615
vt 0.732666 0.281738
vt 0.764648 0.282471
vt 0.823975 0.379883
vt 0.822754 0.280762
vt 0.866211 0.379639
vt 0.864258 0.281250
vt 0.870361 0.379395
vt 0.868408 0.281250
vt 0.909668 0.278809
vt 0.912842 0.378174
vt 0.967773 0.278076
vt 0.971924 0.376221
vt 1.000000 0.275879
vt 0.881348 0.948975
vt 0.874023 0.949463
vt 0.870117 0.840088
vt 0.760254 0.947754
vt 0.761719 0.841797
vt 0.877441 0.839600
vt 0.994629 0.938965
vt 0.985596 0.833496
vt 0.815430 0.189453
vt 0.823975 0.189453
vt 0.819824 0.247803
vt 0.944092 0.214844
vt 0.811279 0.247803
vt 0.693115 0.196777
vt 0.000244 0.620117
vt 0.016846 0.620117
vt 0.016846 0.661865
vt 0.000244 0.661865
vt 0.016846 0.688232
vt 0.000244 0.688232
vt 0.943115 0.091797
vt 0.963135 0.079346
vt 0.998779 0.219727
vt 0.935547 0.104736
vt 0.927246 0.129639
vt 0.906250 0.200684
vt 0.926514 0.101562
vt 0.918213 0.126709
vt 0.897217 0.197754
vt 0.807861 0.156494
vt 0.927734 0.086670
vt 0.919189 0.064697
vt 0.188721 0.836670
vt 0.187744 0.826172
vt 0.266602 0.819336
vt 0.188965 0.717529
vt 0.303223 0.814453
vt 0.321777 0.806641
vt 0.267334 0.829834
vt 0.208496 0.943604
vt 0.304199 0.825195
vt 0.322510 0.830811
vt 0.016113 0.505127
vt 0.000000 0.505127
vt 0.000000 0.474365
vt 0.016113 0.474365
vt 0.000000 0.442627
vt 0.683350 0.794678
vt 0.560791 0.761719
vt 0.563232 0.745605
vt 0.591309 0.711182
vt 0.554932 0.744385
vt 0.559082 0.699707
vt 0.435303 0.693115
vt 0.545166 0.757568
vt 0.327637 0.128174
vt 0.334717 0.128662
vt 0.334717 0.215820
vt 0.443848 0.136719
vt 0.439941 0.231201
vt 0.331787 0.262939
vt 0.327637 0.215332
vt 0.218262 0.136230
vt 0.324707 0.262451
vt 0.222412 0.230713
vt 0.572754 0.825195
vt 0.564209 0.825195
vt 0.564209 0.803223
vt 0.435059 0.842773
vt 0.557129 0.784424
vt 0.572754 0.803223
vt 0.701904 0.842773
vt 0.579834 0.784424
vt 0.623291 0.098633
vt 0.640625 0.140381
vt 0.623291 0.140381
vt 0.640625 0.183838
vt 0.623291 0.183838
vt 0.208740 0.266602
vt 0.234131 0.271729
vt 0.126221 0.400146
vt 0.180176 0.270508
vt 0.094482 0.285156
vt 0.207275 0.256104
vt 0.178711 0.260010
vt 0.093018 0.274414
vt 0.092285 0.149902
vt 0.230469 0.244385
vt 0.575928 0.182373
vt 0.582520 0.182617
vt 0.580811 0.239746
vt 0.578125 0.241943
vt 0.582275 0.283447
vt 0.630371 0.190430
vt 0.578857 0.286133
vt 0.530029 0.190186
vt 0.631592 0.293945
vt 0.528809 0.293945
vt 0.687012 0.193848
vt 0.682617 0.307617
vt 0.711914 0.309082
vt 0.473389 0.193848
vt 0.477783 0.307617
vt 0.448486 0.309082
vt 0.347900 0.400391
vt 0.347168 0.389893
vt 0.424561 0.383057
vt 0.348633 0.264404
vt 0.458252 0.378418
vt 0.481689 0.368164
vt 0.425537 0.393555
vt 0.371094 0.523438
vt 0.459229 0.388916
vt 0.482666 0.396729
vt 0.422363 0.086182
vt 0.439697 0.086182
vt 0.439697 0.129639
vt 0.422363 0.129639
vt 0.855957 0.520996
vt 0.864258 0.520264
vt 0.865967 0.540039
vt 1.000000 0.520020
vt 0.883057 0.566650
vt 0.857666 0.540771
vt 0.722412 0.544434
vt 0.873291 0.568115
vt 0.343750 0.408203
vt 0.343750 0.415527
vt 0.301758 0.415527
vt 0.319092 0.523193
vt 0.218262 0.415527
vt 0.222656 0.527344
vt 0.301758 0.408203
vt 0.319092 0.300537
vt 0.218262 0.408203
vt 0.222900 0.296387
s 1
usemtl tripo_mat_d5938148-6d87-445e-b557-f9aab3281f3f
f 60/1 61/2 67/3
f 57/4 60/1 527/5
f 60/1 57/4 61/2
f 61/2 57/4 58/6
f 61/2 58/6 334/7
f 334/7 58/6 330/8
f 61/2 334/7 339/9
f 61/2 339/9 67/3
f 334/7 330/8 414/10
f 414/10 330/8 413/11
f 339/9 334/7 416/12
f 416/12 334/7 414/10
f 67/3 339/9 343/13
f 339/9 416/12 418/14
f 339/9 418/14 343/13
f 414/10 413/11 462/15
f 462/15 413/11 460/16
f 462/15 460/16 534/17
f 462/15 534/17 538/18
f 414/10 462/15 468/19
f 468/19 462/15 538/18
f 414/10 468/19 416/12
f 468/19 538/18 544/20
f 416/12 468/19 473/21
f 473/21 468/19 544/20
f 416/12 473/21 418/14
f 473/21 544/20 547/22
f 473/21 547/22 474/23
f 473/21 474/23 418/14
f 474/23 547/22 552/24
f 418/14 474/23 419/25
f 419/25 474/23 476/26
f 418/14 419/25 343/13
f 343/13 419/25 344/27
f 344/27 419/25 421/28
f 343/13 344/27 72/29
f 343/13 72/29 67/3
f 72/29 344/27 76/30
f 76/30 344/27 346/31
f 72/29 76/30 65/32
f 67/3 72/29 64/33
f 64/33 72/29 65/32
f 67/3 64/33 60/1
f 60/1 64/33 531/34
f 531/34 64/33 533/35
f 533/35 64/33 65/32
f 533/35 65/32 536/36
f 58/37 57/38 55/39
f 55/39 57/38 524/40
f 58/37 55/39 53/41
f 58/37 53/41 330/42
f 524/40 57/38 527/43
f 330/42 53/41 305/44
f 60/45 531/46 527/43
f 527/43 531/46 538/47
f 527/43 538/47 534/48
f 527/43 534/48 524/40
f 330/42 305/44 413/49
f 305/44 53/41 105/50
f 305/44 105/50 304/51
f 105/50 53/41 106/52
f 106/52 53/41 55/39
f 105/50 106/52 104/53
f 104/53 106/52 519/54
f 305/44 304/51 411/55
f 305/44 411/55 413/49
f 411/55 304/51 409/56
f 413/49 411/55 460/57
f 411/55 409/56 456/58
f 411/55 456/58 460/57
f 523/59 106/52 55/39
f 106/52 523/59 519/54
f 523/59 55/39 524/40
f 519/54 523/59 525/60
f 519/54 525/60 520/61
f 520/61 525/60 453/62
f 453/62 525/60 456/63
f 453/62 456/63 409/64
f 525/60 523/59 529/65
f 529/65 523/59 524/40
f 525/60 529/65 456/63
f 529/65 524/40 534/48
f 456/63 529/65 460/66
f 460/66 529/65 534/48
f 304/67 105/68 163/69
f 163/69 105/68 104/70
f 163/69 104/70 162/71
f 163/69 162/71 178/72
f 304/67 163/69 241/73
f 241/73 163/69 178/72
f 304/67 241/73 409/74
f 241/73 178/72 49/75
f 409/74 241/73 302/76
f 302/76 241/73 49/75
f 409/74 302/76 453/77
f 302/76 49/75 239/78
f 453/77 302/76 387/79
f 387/79 302/76 239/78
f 453/77 387/79 520/80
f 387/79 239/78 300/81
f 387/79 300/81 449/82
f 387/79 449/82 520/80
f 449/82 300/81 404/83
f 449/82 404/83 402/84
f 520/80 449/82 448/85
f 448/85 449/82 402/84
f 520/80 448/85 519/86
f 519/86 448/85 104/87
f 104/87 448/85 162/88
f 162/88 448/85 402/84
f 162/88 402/84 176/89
f 162/88 176/89 178/90
f 178/91 176/92 190/93
f 178/91 190/93 49/94
f 402/95 385/96 176/92
f 176/92 385/96 189/97
f 176/92 189/97 190/93
f 189/97 385/96 287/98
f 49/94 190/93 100/99
f 49/94 100/99 239/100
f 190/93 189/97 194/101
f 189/97 287/98 193/102
f 189/97 193/102 194/101
f 193/102 287/98 242/103
f 193/102 242/103 197/104
f 193/102 197/104 198/105
f 193/102 198/105 194/101
f 190/93 194/101 159/106
f 159/106 194/101 198/105
f 190/93 159/106 100/99
f 159/106 198/105 164/107
f 159/106 164/107 45/108
f 159/106 45/108 100/99
f 45/108 164/107 91/109
f 32/110 239/100 100/99
f 32/110 100/99 45/108
f 239/100 32/110 300/111
f 45/108 91/109 22/112
f 45/108 22/112 32/110
f 22/112 91/109 24/113
f 300/111 32/110 237/114
f 237/114 32/110 22/112
f 300/111 237/114 404/115
f 22/112 24/113 289/116
f 22/112 289/116 237/114
f 289/116 24/113 243/117
f 289/116 243/117 287/118
f 287/118 243/117 242/119
f 237/114 289/116 386/120
f 386/120 289/116 287/118
f 237/114 386/120 404/115
f 386/120 287/118 385/121
f 386/120 385/121 404/115
f 404/115 385/121 402/122
f 164/123 198/124 202/125
f 202/125 198/124 197/126
f 242/127 268/128 197/126
f 197/126 268/128 201/129
f 197/126 201/129 202/125
f 201/129 268/128 307/130
f 164/123 202/125 128/131
f 164/123 128/131 91/132
f 202/125 201/129 186/133
f 201/129 307/130 185/134
f 201/129 185/134 186/133
f 185/134 307/130 355/135
f 185/134 355/135 181/136
f 185/134 181/136 182/137
f 185/134 182/137 186/133
f 202/125 186/133 110/138
f 110/138 186/133 182/137
f 202/125 110/138 128/131
f 110/138 182/137 41/139
f 110/138 41/139 29/140
f 110/138 29/140 128/131
f 29/140 41/139 6/141
f 94/142 91/132 128/131
f 94/142 128/131 29/140
f 91/132 94/142 24/143
f 29/140 6/141 208/144
f 29/140 208/144 94/142
f 208/144 6/141 249/145
f 24/143 94/142 27/146
f 27/146 94/142 208/144
f 24/143 27/146 243/147
f 243/147 27/146 269/148
f 269/148 27/146 208/144
f 243/147 269/148 242/149
f 242/149 269/148 268/150
f 268/150 269/148 307/151
f 309/152 208/144 249/145
f 208/144 309/152 269/148
f 269/148 309/152 307/151
f 309/152 249/145 390/153
f 307/151 309/152 355/154
f 355/154 309/152 390/153
f 41/155 182/156 168/157
f 168/157 182/156 181/158
f 41/155 168/157 8/159
f 41/155 8/159 6/160
f 8/159 168/157 114/161
f 6/160 8/159 273/162
f 8/159 114/161 252/163
f 8/159 252/163 273/162
f 6/160 273/162 249/164
f 273/162 252/163 314/165
f 114/161 168/157 167/166
f 167/166 168/157 181/158
f 114/161 167/166 113/167
f 113/167 167/166 486/168
f 486/168 167/166 432/169
f 432/169 167/166 181/158
f 432/169 181/158 355/170
f 432/169 355/170 390/171
f 357/172 273/162 314/165
f 273/162 357/172 249/164
f 357/172 314/165 394/173
f 249/164 357/172 390/174
f 357/172 394/173 433/175
f 357/172 433/175 390/174
f 433/175 394/173 487/176
f 390/174 433/175 432/177
f 433/175 487/176 486/178
f 433/175 486/178 432/177
f 252/179 114/180 134/181
f 134/181 114/180 113/182
f 134/181 113/182 133/183
f 134/181 133/183 137/184
f 137/184 133/183 135/185
f 252/179 134/181 219/186
f 219/186 134/181 137/184
f 252/179 219/186 314/187
f 219/186 137/184 11/188
f 314/187 219/186 276/189
f 276/189 219/186 11/188
f 314/187 276/189 394/190
f 276/189 11/188 277/191
f 394/190 276/189 395/192
f 395/192 276/189 277/191
f 394/190 395/192 487/193
f 395/192 277/191 367/194
f 395/192 367/194 489/195
f 395/192 489/195 487/193
f 489/195 367/194 493/196
f 487/193 489/195 488/197
f 487/193 488/197 486/198
f 486/198 488/197 113/199
f 113/199 488/197 133/200
f 488/197 489/195 490/201
f 488/197 490/201 133/200
f 490/201 489/195 493/196
f 133/200 490/201 135/202
f 490/201 493/196 492/203
f 490/201 492/203 135/202
f 492/203 493/196 438/204
f 135/202 492/203 136/205
f 492/203 438/204 436/206
f 492/203 436/206 136/205
f 137/207 135/208 140/209
f 137/207 140/209 11/210
f 140/209 135/208 136/211
f 11/210 140/209 12/212
f 11/210 12/212 277/213
f 140/209 136/211 142/214
f 140/209 142/214 12/212
f 142/214 136/211 138/215
f 138/215 136/211 436/216
f 138/215 436/216 437/217
f 277/213 12/212 278/218
f 277/213 278/218 367/219
f 12/212 142/214 13/220
f 12/212 13/220 278/218
f 142/214 138/215 172/221
f 142/214 172/221 13/220
f 138/215 437/217 169/222
f 138/215 169/222 172/221
f 169/222 437/217 439/223
f 169/222 439/223 170/224
f 169/222 170/224 173/225
f 169/222 173/225 172/221
f 13/220 172/221 14/226
f 14/226 172/221 173/225
f 13/220 14/226 255/227
f 13/220 255/227 278/218
f 14/226 173/225 15/228
f 15/228 173/225 174/229
f 255/227 14/226 257/230
f 257/230 14/226 15/228
f 257/230 15/228 259/231
f 259/231 15/228 16/232
f 257/230 259/231 377/233
f 257/230 377/233 372/234
f 257/230 372/234 255/227
f 255/227 372/234 370/235
f 255/227 370/235 278/218
f 370/235 372/234 438/236
f 278/218 370/235 367/219
f 370/235 438/236 493/237
f 370/235 493/237 367/219
f 436/238 438/239 441/240
f 441/240 438/239 372/241
f 436/238 441/240 437/242
f 441/240 372/241 377/243
f 437/242 441/240 443/244
f 443/244 441/240 377/243
f 437/242 443/244 439/245
f 439/245 443/244 444/246
f 443/244 377/243 318/247
f 443/244 318/247 444/246
f 444/246 318/247 319/248
f 318/247 377/243 259/249
f 318/247 259/249 260/250
f 173/251 170/252 174/253
f 174/253 170/252 171/254
f 174/253 171/254 153/255
f 153/255 171/254 145/256
f 145/256 171/254 442/257
f 174/253 153/255 16/258
f 174/253 16/258 15/259
f 16/258 153/255 18/260
f 16/258 18/260 260/261
f 16/258 260/261 259/262
f 260/261 18/260 282/263
f 260/261 282/263 319/264
f 440/265 171/254 170/252
f 171/254 440/265 442/257
f 440/265 170/252 439/266
f 440/265 439/266 444/267
f 442/257 440/265 445/268
f 445/268 440/265 444/267
f 442/257 445/268 446/269
f 445/268 444/267 319/270
f 446/269 445/268 381/271
f 381/271 445/268 319/270
f 381/271 319/270 282/272
f 319/273 318/274 260/275
f 442/276 446/277 500/278
f 442/276 500/278 145/279
f 145/279 500/278 148/280
f 148/280 500/278 516/281
f 148/280 516/281 121/282
f 516/281 500/278 507/283
f 507/283 500/278 446/277
f 516/281 507/283 517/284
f 517/284 507/283 401/285
f 507/283 446/277 399/286
f 507/283 399/286 401/285
f 399/286 446/277 381/287
f 401/285 399/286 320/288
f 399/286 381/287 284/289
f 399/286 284/289 320/288
f 284/289 381/287 282/290
f 320/288 284/289 261/291
f 284/289 282/290 231/292
f 284/289 231/292 261/291
f 231/292 282/290 18/293
f 261/291 231/292 122/294
f 231/292 18/293 155/295
f 231/292 155/295 122/294
f 155/295 18/293 153/296
f 122/294 155/295 121/297
f 155/295 153/296 145/298
f 121/297 155/295 148/299
f 148/299 155/295 145/298
f 121/300 516/301 504/302
f 121/300 504/302 150/303
f 150/303 504/302 503/304
f 150/303 503/304 151/305
f 121/300 150/303 122/306
f 150/303 151/305 158/307
f 122/306 150/303 157/308
f 157/308 150/303 158/307
f 122/306 157/308 261/309
f 157/308 158/307 233/310
f 157/308 233/310 261/309
f 233/310 158/307 232/311
f 261/309 233/310 320/312
f 233/310 232/311 321/313
f 233/310 321/313 320/312
f 321/313 232/311 286/314
f 320/312 321/313 401/315
f 321/313 286/314 400/316
f 321/313 400/316 401/315
f 400/316 286/314 384/317
f 401/315 400/316 517/318
f 400/316 384/317 509/319
f 400/316 509/319 517/318
f 509/319 384/317 510/320
f 509/319 510/320 503/321
f 509/319 503/321 504/322
f 509/319 504/322 517/318
f 517/318 504/322 516/323
f 20/324 286/325 232/326
f 286/325 20/324 285/327
f 285/327 20/324 19/328
f 286/325 285/327 384/329
f 20/324 232/326 156/330
f 20/324 156/330 154/331
f 156/330 232/326 158/332
f 384/329 285/327 383/333
f 383/333 285/327 283/334
f 384/329 383/333 510/335
f 510/335 383/333 508/336
f 508/336 383/333 382/337
f 156/330 158/332 149/338
f 156/330 149/338 154/331
f 154/331 149/338 146/339
f 149/338 158/332 151/340
f 146/339 149/338 499/341
f 149/338 151/340 501/342
f 149/338 501/342 499/341
f 501/342 151/340 503/343
f 501/342 503/343 510/344
f 501/342 510/344 508/345
f 501/342 508/345 499/341
f 499/341 508/345 506/346
f 508/347 382/348 506/349
f 506/349 382/348 380/350
f 506/349 380/350 505/351
f 505/351 380/350 379/352
f 505/351 379/352 502/353
f 380/350 382/348 281/354
f 379/352 380/350 280/355
f 280/355 380/350 281/354
f 502/353 379/352 374/356
f 502/353 374/356 498/357
f 498/357 374/356 397/358
f 397/358 374/356 316/359
f 374/356 379/352 279/360
f 374/356 279/360 316/359
f 279/360 379/352 280/355
f 316/359 279/360 224/361
f 224/361 279/360 228/362
f 228/362 279/360 280/355
f 224/361 228/362 120/363
f 228/362 280/355 230/364
f 230/364 280/355 281/354
f 120/363 228/362 143/365
f 143/365 228/362 230/364
f 120/363 143/365 139/366
f 139/366 143/365 141/367
f 139/366 141/367 494/368
f 143/365 230/364 147/369
f 143/365 147/369 141/367
f 230/364 281/354 17/370
f 230/364 17/370 147/369
f 17/370 281/354 283/371
f 283/371 281/354 382/348
f 283/371 382/348 383/372
f 17/370 283/371 19/373
f 19/373 283/371 285/374
f 147/369 17/370 152/375
f 152/375 17/370 19/373
f 152/375 19/373 154/376
f 154/376 19/373 20/377
f 152/375 154/376 146/378
f 147/369 152/375 144/379
f 144/379 152/375 146/378
f 147/369 144/379 141/367
f 144/379 146/378 497/380
f 497/380 146/378 499/381
f 497/380 499/381 506/382
f 497/380 506/382 505/383
f 144/379 497/380 496/384
f 144/379 496/384 141/367
f 496/384 497/380 505/383
f 141/367 496/384 494/368
f 496/384 505/383 502/385
f 496/384 502/385 494/368
f 494/386 502/387 498/388
f 494/386 498/388 491/389
f 494/386 491/389 139/390
f 491/389 498/388 495/391
f 495/391 498/388 397/392
f 495/391 397/392 396/393
f 139/390 491/389 119/394
f 139/390 119/394 120/395
f 491/389 495/391 514/396
f 491/389 514/396 119/394
f 495/391 396/393 515/397
f 495/391 515/397 514/396
f 515/397 396/393 431/398
f 431/398 396/393 363/399
f 515/397 431/398 513/400
f 515/397 513/400 512/401
f 515/397 512/401 514/396
f 514/396 512/401 117/402
f 514/396 117/402 119/394
f 117/402 512/401 115/403
f 117/402 115/403 116/404
f 119/394 117/402 118/405
f 118/405 117/402 116/404
f 119/394 118/405 120/395
f 120/395 118/405 224/406
f 118/405 116/404 254/407
f 118/405 254/407 224/406
f 254/407 116/404 253/408
f 224/406 254/407 316/409
f 254/407 253/408 315/410
f 254/407 315/410 316/409
f 315/410 253/408 363/411
f 316/409 315/410 397/412
f 315/410 363/411 396/413
f 315/410 396/413 397/412
f 116/414 115/415 132/416
f 116/414 132/416 253/417
f 512/418 434/419 115/415
f 115/415 434/419 131/420
f 115/415 131/420 132/416
f 131/420 434/419 391/421
f 131/420 391/421 183/422
f 131/420 183/422 184/423
f 131/420 184/423 132/416
f 9/424 253/417 132/416
f 9/424 132/416 184/423
f 253/417 9/424 363/425
f 9/424 184/423 43/426
f 363/425 9/424 274/427
f 274/427 9/424 43/426
f 363/425 274/427 431/428
f 274/427 43/426 7/429
f 431/428 274/427 359/430
f 359/430 274/427 7/429
f 431/428 359/430 513/431
f 359/430 7/429 251/432
f 359/430 251/432 435/433
f 359/430 435/433 513/431
f 435/433 251/432 392/434
f 435/433 392/434 391/435
f 435/433 391/435 434/436
f 435/433 434/436 513/431
f 513/431 434/436 512/437
f 7/438 43/439 111/440
f 111/440 43/439 188/441
f 188/441 43/439 184/442
f 188/441 184/442 183/443
f 7/438 111/440 30/444
f 7/438 30/444 251/445
f 111/440 188/441 204/446
f 251/445 30/444 210/447
f 251/445 210/447 392/448
f 30/444 111/440 130/449
f 130/449 111/440 204/446
f 210/447 30/444 95/450
f 95/450 30/444 130/449
f 95/450 130/449 166/451
f 166/451 130/449 200/452
f 200/452 130/449 204/446
f 95/450 166/451 92/453
f 95/450 92/453 3/454
f 95/450 3/454 210/447
f 3/454 92/453 26/455
f 210/447 3/454 311/456
f 210/447 311/456 392/448
f 3/454 26/455 271/457
f 3/454 271/457 311/456
f 271/457 26/455 245/458
f 271/457 245/458 244/459
f 271/457 244/459 270/460
f 271/457 270/460 311/456
f 311/456 270/460 310/461
f 311/456 310/461 392/448
f 392/448 310/461 391/462
f 203/463 200/452 204/446
f 200/452 203/463 199/464
f 199/464 203/463 244/465
f 244/465 203/463 270/466
f 203/463 204/446 187/467
f 203/463 187/467 270/466
f 187/467 204/446 188/441
f 270/466 187/467 310/468
f 187/467 188/441 183/443
f 187/467 183/443 310/468
f 310/468 183/443 391/469
f 166/470 200/471 196/472
f 196/472 200/471 199/473
f 244/474 290/475 199/473
f 199/473 290/475 195/476
f 199/473 195/476 196/472
f 195/476 290/475 322/477
f 195/476 322/477 191/478
f 195/476 191/478 196/472
f 191/478 322/477 403/479
f 191/478 403/479 177/480
f 191/478 177/480 179/481
f 196/472 191/478 192/482
f 192/482 191/478 179/481
f 161/483 166/470 196/472
f 161/483 196/472 192/482
f 166/470 161/483 92/484
f 192/482 179/481 103/485
f 192/482 103/485 161/483
f 103/485 179/481 50/486
f 92/484 161/483 46/487
f 46/487 161/483 103/485
f 92/484 46/487 26/488
f 103/485 50/486 33/489
f 103/485 33/489 46/487
f 33/489 50/486 240/490
f 26/488 46/487 23/491
f 23/491 46/487 33/489
f 26/488 23/491 245/492
f 33/489 240/490 238/493
f 33/489 238/493 23/491
f 238/493 240/490 301/494
f 245/492 23/491 291/495
f 291/495 23/491 238/493
f 245/492 291/495 290/496
f 245/492 290/496 244/497
f 290/496 291/495 322/498
f 238/493 301/494 323/499
f 238/493 323/499 291/495
f 291/495 323/499 322/498
f 323/499 301/494 405/500
f 322/498 323/499 403/501
f 403/501 323/499 405/500
f 50/502 179/503 126/504
f 126/504 179/503 177/505
f 50/502 126/504 265/506
f 50/502 265/506 240/507
f 265/506 126/504 52/508
f 240/507 265/506 324/509
f 265/506 52/508 325/510
f 265/506 325/510 324/509
f 240/507 324/509 301/511
f 324/509 325/510 410/512
f 301/511 324/509 406/513
f 406/513 324/509 410/512
f 301/511 406/513 405/514
f 406/513 410/512 454/515
f 405/514 406/513 518/516
f 518/516 406/513 454/515
f 405/514 518/516 511/517
f 518/516 454/515 522/518
f 511/517 518/516 521/519
f 521/519 518/516 522/518
f 125/520 52/508 126/504
f 52/508 125/520 51/521
f 51/521 125/520 521/522
f 125/520 126/504 177/505
f 521/522 125/520 511/523
f 511/523 125/520 177/505
f 511/523 177/505 403/524
f 511/523 403/524 405/525
f 52/526 51/527 56/528
f 52/526 56/528 325/529
f 325/529 56/528 329/530
f 325/529 329/530 410/531
f 410/531 329/530 412/532
f 412/532 329/530 335/533
f 335/533 329/530 63/534
f 63/534 329/530 56/528
f 63/534 56/528 54/535
f 54/535 56/528 51/527
f 63/534 54/535 59/536
f 54/535 51/527 526/537
f 526/537 51/527 521/538
f 526/537 521/538 522/539
f 54/535 526/537 530/540
f 54/535 530/540 59/536
f 59/536 530/540 532/541
f 59/536 532/541 62/542
f 532/541 530/540 535/543
f 532/541 535/543 543/544
f 530/540 526/537 528/545
f 530/540 528/545 535/543
f 528/545 526/537 522/539
f 535/543 528/545 463/546
f 528/545 522/539 458/547
f 528/545 458/547 463/546
f 463/546 458/547 415/548
f 458/547 522/539 454/549
f 415/548 458/547 412/550
f 412/550 458/547 454/549
f 412/550 454/549 410/551
f 415/552 412/553 335/554
f 415/552 335/554 341/555
f 415/552 341/555 417/556
f 415/552 417/556 463/557
f 463/557 417/556 470/558
f 341/555 335/554 70/559
f 70/559 335/554 63/560
f 70/559 63/560 59/561
f 70/559 59/561 62/562
f 470/558 417/556 420/563
f 470/558 420/563 475/564
f 345/565 417/556 341/555
f 417/556 345/565 420/563
f 77/566 341/555 70/559
f 77/566 70/559 62/562
f 341/555 77/566 345/565
f 475/564 420/563 422/567
f 475/564 422/567 478/568
f 420/563 345/565 347/569
f 420/563 347/569 422/567
f 345/565 77/566 82/570
f 345/565 82/570 347/569
f 478/568 422/567 424/571
f 478/568 424/571 479/572
f 479/572 424/571 426/573
f 424/571 422/567 349/574
f 349/574 422/567 347/569
f 424/571 349/574 351/575
f 349/574 347/569 84/576
f 84/576 347/569 82/570
f 349/574 84/576 86/577
f 84/576 82/570 69/578
f 84/576 69/578 74/579
f 74/579 69/578 542/580
f 542/580 69/578 540/581
f 69/578 82/570 66/582
f 69/578 66/582 540/581
f 66/582 82/570 77/566
f 540/581 66/582 537/583
f 66/582 77/566 62/562
f 66/582 62/562 537/583
f 537/583 62/562 532/584
f 463/585 470/586 535/587
f 535/587 470/586 543/588
f 543/588 470/586 475/589
f 543/588 475/589 551/590
f 551/590 475/589 478/591
f 543/588 551/590 537/592
f 543/588 537/592 532/593
f 537/592 551/590 540/594
f 551/590 478/591 553/595
f 551/590 553/595 540/594
f 540/594 553/595 542/596
f 553/595 478/591 479/597
f 542/596 553/595 555/598
f 555/598 553/595 479/597
f 555/598 479/597 481/599
f 84/600 74/601 86/602
f 86/602 74/601 73/603
f 86/602 73/603 87/604
f 87/604 73/603 80/605
f 80/605 73/603 550/606
f 73/603 74/601 545/607
f 73/603 545/607 550/606
f 545/607 74/601 542/608
f 545/607 542/608 555/609
f 550/606 545/607 556/610
f 556/610 545/607 555/609
f 550/606 556/610 560/611
f 560/611 556/610 482/612
f 556/610 555/609 481/613
f 556/610 481/613 482/612
f 482/612 481/613 429/614
f 429/614 481/613 426/615
f 426/615 481/613 479/616
f 429/614 426/615 354/617
f 354/617 426/615 351/618
f 351/618 426/615 424/619
f 354/617 351/618 87/620
f 87/620 351/618 86/621
f 86/621 351/618 349/622
f 550/623 560/624 549/625
f 549/625 560/624 559/626
f 549/625 559/626 548/627
f 548/627 559/626 558/628
f 558/628 559/626 483/629
f 559/626 560/624 484/630
f 559/626 484/630 483/629
f 484/630 560/624 482/631
f 483/629 484/630 427/632
f 484/630 482/631 428/633
f 484/630 428/633 427/632
f 428/633 482/631 429/634
f 427/632 428/633 352/635
f 428/633 429/634 353/636
f 428/633 353/636 352/635
f 353/636 429/634 354/637
f 352/635 353/636 88/638
f 353/636 354/637 89/639
f 353/636 89/639 88/638
f 89/639 354/637 87/640
f 88/638 89/639 78/641
f 89/639 87/640 80/642
f 78/641 89/639 79/643
f 79/643 89/639 80/642
f 78/641 79/643 548/644
f 548/644 79/643 549/645
f 549/645 79/643 80/642
f 549/645 80/642 550/646
f 483/647 427/648 425/649
f 425/649 427/648 350/650
f 350/650 427/648 352/651
f 483/647 425/649 480/652
f 483/647 480/652 558/653
f 425/649 350/650 348/654
f 425/649 348/654 423/655
f 425/649 423/655 480/652
f 348/654 350/650 83/656
f 480/652 423/655 477/657
f 350/650 352/651 85/658
f 350/650 85/658 83/656
f 83/656 85/658 71/659
f 85/658 352/651 88/660
f 71/659 85/658 75/661
f 75/661 85/658 88/660
f 75/661 88/660 78/662
f 480/652 477/657 557/663
f 480/652 557/663 558/653
f 557/663 477/657 554/664
f 557/663 554/664 541/665
f 558/653 557/663 546/666
f 546/666 557/663 541/665
f 558/653 546/666 548/667
f 548/667 546/666 78/668
f 78/668 546/666 75/669
f 75/669 546/666 541/665
f 75/669 541/665 71/670
f 348/671 83/672 81/673
f 81/673 83/672 68/674
f 68/674 83/672 71/675
f 348/671 81/673 346/676
f 348/671 346/676 423/677
f 346/676 81/673 76/678
f 76/678 81/673 68/674
f 76/678 68/674 65/679
f 65/679 68/674 536/680
f 423/677 346/676 421/681
f 421/681 346/676 344/682
f 423/677 421/681 477/683
f 477/683 421/681 476/684
f 476/684 421/681 419/685
f 477/683 476/684 554/686
f 554/686 476/684 552/687
f 552/687 476/684 474/688
f 552/689 547/690 536/680
f 552/689 536/680 539/691
f 539/691 536/680 68/674
f 552/689 539/691 554/692
f 539/691 68/674 71/675
f 554/692 539/691 541/693
f 541/693 539/691 71/675
f 536/694 547/695 533/696
f 533/696 547/695 544/697
f 533/696 544/697 531/698
f 531/698 544/697 538/699
f 36/700 99/701 34/702
f 34/702 99/701 295/703
f 99/701 36/700 48/704
s 0
f 48/704 36/700 47/705
s 1
f 295/703 99/701 262/706
f 99/701 48/704 44/707
f 99/701 44/707 262/706
s 0
f 48/704 47/705 98/708
s 1
f 48/704 98/708 44/707
s 0
f 98/708 47/705 160/709
s 1
f 98/708 160/709 175/710
f 175/710 160/709 180/711
f 98/708 175/710 90/712
f 98/708 90/712 44/707
f 44/707 90/712 288/713
f 44/707 288/713 262/706
f 288/713 90/712 205/714
f 288/713 205/714 21/715
f 288/713 21/715 292/716
f 288/713 292/716 262/706
f 292/716 21/715 39/717
f 292/716 39/717 234/718
f 292/716 234/718 293/719
f 262/706 292/716 294/720
s 0
f 294/720 292/716 293/719
s 1
f 262/706 294/720 295/703
s 0
f 294/720 293/719 297/721
s 1
f 294/720 297/721 295/703
f 295/722 297/723 452/724
f 452/724 297/723 407/725
f 295/722 452/724 34/726
f 34/726 452/724 303/727
f 34/726 303/727 266/728
f 34/726 266/728 36/729
f 93/730 205/731 90/732
f 93/730 90/732 175/733
f 180/734 129/735 175/733
f 175/733 129/735 107/736
f 175/733 107/736 93/730
s 0
f 107/736 129/735 40/737
f 107/736 40/737 28/738
f 28/738 40/737 31/739
s 1
f 93/730 107/736 4/740
f 4/740 107/736 28/738
f 4/740 28/738 211/741
f 211/741 28/738 5/742
f 93/730 4/740 206/743
f 93/730 206/743 205/731
f 4/740 211/741 308/744
f 4/740 308/744 206/743
f 308/744 211/741 356/745
f 308/744 356/745 312/746
f 308/744 312/746 306/747
f 308/744 306/747 206/743
f 205/731 206/743 246/748
f 246/748 206/743 306/747
f 205/731 246/748 21/749
f 21/749 246/748 207/750
s 0
f 207/750 246/748 306/747
s 1
f 21/749 207/750 39/751
s 0
f 207/750 306/747 272/752
s 1
f 272/752 306/747 313/753
f 39/754 207/755 247/756
f 39/754 247/756 1/757
s 0
f 247/756 207/755 272/758
s 1
f 1/757 247/756 25/759
f 247/756 272/758 248/760
f 248/760 272/758 212/761
f 25/759 247/756 2/762
f 2/762 247/756 248/760
f 25/759 2/762 127/763
f 248/760 212/761 250/764
f 2/762 248/760 209/765
f 209/765 248/760 250/764
f 127/763 2/762 109/766
f 109/766 2/762 209/765
f 127/763 109/766 108/767
f 127/763 108/767 165/768
f 165/768 108/767 180/769
f 180/769 108/767 129/770
s 0
f 129/770 108/767 40/771
s 1
f 209/765 250/764 97/772
f 209/765 97/772 109/766
f 97/772 250/764 42/773
f 96/774 108/767 109/766
f 108/767 96/774 40/771
f 96/774 109/766 97/772
f 96/774 97/772 42/773
f 40/771 96/774 112/775
f 112/775 96/774 42/773
f 234/776 39/777 1/778
f 234/776 1/778 235/779
f 234/776 235/779 293/780
f 235/779 1/778 25/781
f 293/780 235/779 263/782
f 293/780 263/782 296/783
f 235/779 25/781 236/784
f 235/779 236/784 263/782
f 236/784 25/781 124/785
f 124/785 25/781 127/786
f 263/782 236/784 264/787
f 263/782 264/787 299/788
f 299/788 264/787 298/789
f 298/789 264/787 37/790
f 264/787 236/784 102/791
f 264/787 102/791 37/790
f 102/791 236/784 124/785
f 37/790 102/791 38/792
f 38/792 102/791 101/793
f 101/793 102/791 124/785
f 123/794 124/785 127/786
f 124/785 123/794 101/793
f 123/794 127/786 165/795
s 0
f 101/793 123/794 47/796
s 1
f 101/793 47/796 35/797
s 0
f 47/796 123/794 160/798
s 1
f 160/798 123/794 165/795
f 160/798 165/795 180/799
f 212/800 272/801 313/802
f 212/800 313/802 393/803
f 393/803 313/802 561/804
f 393/803 561/804 378/805
f 378/805 561/804 447/806
f 378/805 447/806 258/807
f 258/807 447/806 317/808
f 378/805 258/807 229/809
f 229/809 258/807 317/808
f 229/809 317/808 430/810
f 229/809 430/810 10/811
f 10/811 430/810 31/812
f 10/811 31/812 112/813
f 112/813 31/812 40/814
s 0
f 293/815 296/816 297/817
f 297/817 296/816 407/818
s 1
f 407/818 296/816 450/819
f 407/818 450/819 472/820
f 407/818 472/820 467/821
f 467/821 472/820 337/822
f 337/822 472/820 342/823
f 337/822 342/823 388/824
f 337/822 388/824 266/825
f 266/825 388/824 35/826
f 266/825 35/826 36/827
f 36/827 35/826 47/828
s 0
f 296/829 263/830 299/831
s 1
f 296/829 299/831 450/832
f 450/832 299/831 451/833
f 450/832 451/833 472/834
f 472/834 451/833 471/835
f 472/834 471/835 342/836
f 342/836 471/835 340/837
f 342/836 340/837 389/838
f 342/836 389/838 388/839
f 388/839 389/838 38/840
f 388/839 38/840 35/841
f 35/841 38/840 101/842
f 298/843 37/844 267/845
f 267/845 37/844 38/846
f 267/845 38/846 389/847
f 298/843 267/845 408/848
f 298/843 408/848 299/849
f 299/849 408/848 451/850
f 408/851 267/852 327/853
f 327/853 267/852 389/854
f 408/851 327/853 457/855
f 408/851 457/855 451/856
f 457/857 327/858 333/859
f 457/857 333/859 465/860
f 465/860 333/859 336/861
f 465/860 336/861 466/862
f 333/863 327/864 389/865
f 333/863 389/865 336/866
f 336/866 389/865 338/867
f 338/867 389/865 340/868
f 336/866 338/867 466/869
f 338/867 340/868 469/870
f 338/867 469/870 466/869
f 469/870 340/868 471/871
f 469/870 471/871 451/872
f 469/870 451/872 466/869
f 466/869 451/872 465/873
f 465/873 451/872 457/874
f 467/875 337/876 332/877
f 332/877 337/876 266/878
f 332/877 266/878 331/879
f 331/879 266/878 328/880
f 467/875 332/877 464/881
f 464/881 332/877 331/879
f 467/875 464/881 407/882
f 464/881 331/879 461/883
f 464/881 461/883 407/882
f 407/882 461/883 459/884
f 461/885 331/886 328/887
f 461/885 328/887 459/888
f 459/888 328/887 326/889
f 407/890 459/891 455/892
f 407/890 455/892 452/893
f 455/892 459/891 326/894
f 452/893 455/892 303/895
f 303/895 455/892 326/894
f 303/895 326/894 266/896
f 266/896 326/894 328/897
f 42/898 250/899 360/900
f 360/900 250/899 212/901
f 360/900 212/901 393/902
f 360/900 393/902 362/903
f 42/898 360/900 214/904
f 214/904 360/900 362/903
f 42/898 214/904 112/905
f 214/904 362/903 216/906
f 112/905 214/904 10/907
f 10/907 214/904 216/906
f 216/908 362/909 365/910
f 365/910 362/909 393/911
f 365/910 393/911 369/912
f 365/910 369/912 218/913
f 365/910 218/913 216/908
f 216/908 218/913 10/914
f 10/914 218/913 222/915
f 218/916 369/917 222/918
f 222/918 369/917 373/919
f 222/918 373/919 225/920
f 373/921 369/922 393/923
f 373/921 393/923 376/924
f 376/924 393/923 378/925
f 373/921 376/924 225/926
f 376/924 378/925 227/927
f 376/924 227/927 225/926
f 227/927 378/925 229/928
f 227/927 229/928 10/929
f 227/927 10/929 225/926
f 225/926 10/929 222/930
f 317/931 447/932 398/933
f 317/931 398/933 256/934
f 398/933 447/932 375/935
f 398/933 375/935 256/934
f 375/935 447/932 561/936
f 317/931 256/934 226/937
f 226/937 256/934 375/935
f 317/931 226/937 430/938
f 375/935 561/936 485/939
f 430/938 226/937 275/940
f 485/939 561/936 313/941
f 485/939 313/941 312/942
f 312/942 313/941 306/943
f 430/938 275/940 31/944
f 31/944 275/940 5/945
s 0
f 31/944 5/945 28/946
s 1
f 226/947 375/948 371/949
f 371/949 375/948 485/950
f 371/949 485/950 368/951
f 368/951 485/950 366/952
f 226/947 371/949 223/953
f 223/953 371/949 368/951
f 226/947 223/953 275/954
f 223/953 368/951 221/955
f 223/953 221/955 275/954
f 275/954 221/955 220/956
f 221/957 368/958 366/959
f 221/957 366/959 220/960
f 220/961 366/962 364/963
f 364/963 366/962 485/964
f 364/963 485/964 361/965
f 220/961 364/963 217/966
f 217/966 364/963 361/965
f 220/961 217/966 275/967
f 217/966 361/965 215/968
f 217/966 215/968 275/967
f 215/969 361/970 358/971
f 358/971 361/970 485/972
f 358/971 485/972 356/973
f 356/973 485/972 312/974
f 215/969 358/971 213/975
f 213/975 358/971 356/973
f 215/969 213/975 275/976
f 213/975 356/973 211/977
f 275/976 213/975 5/978
f 5/978 213/975 211/977
