# Blender 5.0.1
# www.blender.org
mtllib tripo_convert_561fabab-e343-48d4-a3de-28e2da3c36ca.mtl
o tripo_node_561fabab-e343-48d4-a3de-28e2da3c36ca
v 0.000977 0.507812 0.477539
v 0.000977 0.507812 -0.477539
v 0.000977 0.523438 0.487305
v 0.000977 0.523438 -0.487305
v 0.000977 0.548828 0.487305
v 0.000977 0.548828 -0.487305
v 0.000977 0.591797 -0.483398
v 0.000977 0.593750 0.483398
v 0.000977 0.626953 -0.475586
v 0.000977 0.630859 0.477539
v 0.000977 0.642578 -0.469727
v 0.000977 0.652344 0.467773
v 0.000977 0.660156 -0.450195
v 0.000977 0.671875 0.450195
v 0.000977 0.681641 -0.456055
v 0.000977 0.695312 0.452148
v 0.000977 0.707031 -0.450195
v 0.000977 0.722656 0.444336
v 0.000977 0.769531 -0.415039
v 0.000977 0.775391 0.413086
v 0.000977 0.832031 0.370117
v 0.000977 0.832031 -0.370117
v 0.000977 0.869141 0.334961
v 0.000977 0.869141 -0.334961
v 0.000977 0.888672 -0.299805
v 0.000977 0.890625 0.299805
v 0.000977 0.921875 0.250977
v 0.000977 0.921875 -0.249023
v 0.000977 0.945312 0.221680
v 0.000977 0.945312 -0.221680
v 0.000977 0.962891 0.182617
v 0.000977 0.962891 -0.182617
v 0.000977 0.982422 0.125977
v 0.000977 0.982422 -0.125977
v 0.000977 0.996094 0.061523
v 0.000977 0.996094 -0.061523
v 0.000977 0.998047 0.000977
v 0.000977 0.490234 0.477539
v 0.000977 0.490234 -0.477539
v 0.000977 0.474609 0.487305
v 0.000977 0.474609 -0.487305
v 0.000977 0.449219 0.487305
v 0.000977 0.449219 -0.487305
v 0.000977 0.406250 -0.483398
v 0.000977 0.404297 0.483398
v 0.000977 0.371094 -0.475586
v 0.000977 0.367188 0.477539
v 0.000977 0.355469 -0.469727
v 0.000977 0.345703 0.467773
v 0.000977 0.337891 -0.450195
v 0.000977 0.326172 0.450195
v 0.000977 0.316406 -0.456055
v 0.000977 0.302734 0.452148
v 0.000977 0.291016 -0.450195
v 0.000977 0.275391 0.444336
v 0.000977 0.230469 -0.416992
v 0.000977 0.224609 0.413086
v 0.000977 0.166016 0.370117
v 0.000977 0.166016 -0.370117
v 0.000977 0.128906 0.334961
v 0.000977 0.128906 -0.334961
v 0.000977 0.109375 -0.299805
v 0.000977 0.107422 0.299805
v 0.000977 0.076172 0.250977
v 0.000977 0.076172 -0.249023
v 0.000977 0.052734 0.221680
v 0.000977 0.052734 -0.221680
v 0.000977 0.035156 0.182617
v 0.000977 0.035156 -0.182617
v 0.000977 0.015625 0.125977
v 0.000977 0.015625 -0.125977
v 0.000977 0.001953 0.061523
v 0.000977 0.001953 -0.061523
v 0.000977 0.000000 0.000977
v 0.038086 0.898438 -0.293945
v 0.038086 0.900391 0.293945
v 0.038086 0.099609 -0.293945
v 0.038086 0.097656 0.291992
v 0.041992 0.917969 -0.262695
v 0.041992 0.919922 0.262695
v 0.041992 0.080078 -0.262695
v 0.041992 0.078125 0.262695
v 0.047852 0.880859 -0.315430
v 0.047852 0.882812 0.315430
v 0.047852 0.117188 -0.315430
v 0.047852 0.115234 0.315430
v 0.061523 0.841797 -0.354492
v 0.061523 0.843750 0.354492
v 0.061523 0.156250 -0.354492
v 0.061523 0.154297 0.354492
v 0.063477 0.927734 0.247070
v 0.063477 0.927734 -0.247070
v 0.063477 0.070312 0.247070
v 0.063477 0.070312 -0.247070
v 0.077148 0.781250 -0.399414
v 0.077148 0.787109 0.397461
v 0.077148 0.218750 -0.401367
v 0.077148 0.212891 0.399414
v 0.086914 0.736328 0.428711
v 0.086914 0.261719 0.428711
v 0.088867 0.906250 0.276367
v 0.088867 0.906250 -0.276367
v 0.088867 0.091797 0.276367
v 0.088867 0.091797 -0.276367
v 0.090820 0.720703 -0.434570
v 0.090820 0.277344 -0.434570
v 0.092773 0.708984 0.438477
v 0.092773 0.289062 0.438477
v 0.094727 0.693359 -0.440430
v 0.094727 0.304688 -0.440430
v 0.096680 0.685547 0.434570
v 0.096680 0.312500 0.434570
v 0.098633 0.673828 -0.436523
v 0.098633 0.324219 -0.436523
v 0.100586 0.939453 0.213867
v 0.100586 0.939453 -0.213867
v 0.100586 0.058594 0.213867
v 0.100586 0.058594 -0.213867
v 0.104492 0.667969 0.454102
v 0.104492 0.330078 0.454102
v 0.106445 0.656250 -0.454102
v 0.106445 0.341797 -0.454102
v 0.112305 0.638672 -0.459961
v 0.112305 0.644531 0.461914
v 0.112305 0.359375 -0.459961
v 0.112305 0.353516 0.461914
v 0.118164 0.964844 0.143555
v 0.118164 0.964844 -0.143555
v 0.118164 0.033203 0.143555
v 0.118164 0.033203 -0.143555
v 0.120117 0.599609 -0.467773
v 0.120117 0.601562 0.467773
v 0.120117 0.869141 0.313477
v 0.120117 0.869141 -0.313477
v 0.120117 0.398438 -0.467773
v 0.120117 0.396484 0.467773
v 0.120117 0.128906 0.313477
v 0.120117 0.128906 -0.313477
v 0.125977 0.507812 0.463867
v 0.125977 0.507812 -0.463867
v 0.125977 0.523438 0.473633
v 0.125977 0.550781 -0.473633
v 0.125977 0.552734 0.473633
v 0.125977 0.490234 0.463867
v 0.125977 0.490234 -0.463867
v 0.125977 0.474609 0.473633
v 0.125977 0.447266 -0.473633
v 0.125977 0.445312 0.473633
v 0.127930 0.523438 -0.473633
v 0.127930 0.474609 -0.473633
v 0.129883 0.978516 0.073242
v 0.129883 0.978516 -0.073242
v 0.129883 0.019531 0.073242
v 0.129883 0.019531 -0.073242
v 0.133789 0.982422 0.000977
v 0.133789 0.015625 0.000977
v 0.149414 0.818359 0.354492
v 0.149414 0.181641 0.354492
v 0.151367 0.812500 -0.354492
v 0.151367 0.187500 -0.356445
v 0.165039 0.900391 0.250977
v 0.165039 0.097656 0.250977
v 0.166992 0.900391 -0.250977
v 0.166992 0.097656 -0.250977
v 0.168945 0.773438 0.379883
v 0.168945 0.224609 0.379883
v 0.176758 0.750000 0.383789
v 0.176758 0.248047 0.383789
v 0.178711 0.755859 -0.385742
v 0.178711 0.242188 -0.385742
v 0.184570 0.728516 0.387695
v 0.184570 0.269531 0.387695
v 0.186523 0.726562 -0.387695
v 0.186523 0.271484 -0.387695
v 0.192383 0.707031 -0.387695
v 0.192383 0.291016 -0.387695
v 0.198242 0.714844 0.403320
v 0.198242 0.283203 0.403320
v 0.200195 0.925781 0.174805
v 0.200195 0.925781 -0.174805
v 0.200195 0.072266 0.174805
v 0.200195 0.072266 -0.174805
v 0.206055 0.693359 -0.405273
v 0.206055 0.304688 -0.405273
v 0.211914 0.853516 0.286133
v 0.211914 0.144531 0.286133
v 0.213867 0.849609 -0.286133
v 0.213867 0.150391 -0.286133
v 0.215820 0.679688 0.413086
v 0.215820 0.318359 0.413086
v 0.217773 0.671875 -0.411133
v 0.217773 0.326172 -0.411133
v 0.223633 0.941406 0.090820
v 0.223633 0.941406 -0.090820
v 0.223633 0.056641 0.090820
v 0.223633 0.056641 -0.090820
v 0.231445 0.947266 0.000977
v 0.231445 0.050781 0.000977
v 0.233398 0.623047 0.420898
v 0.233398 0.375000 0.420898
v 0.235352 0.621094 -0.420898
v 0.235352 0.376953 -0.420898
v 0.239258 0.816406 0.305664
v 0.239258 0.181641 0.305664
v 0.247070 0.562500 0.424805
v 0.247070 0.792969 0.307617
v 0.247070 0.435547 0.424805
v 0.247070 0.205078 0.307617
v 0.249023 0.507812 0.413086
v 0.249023 0.507812 -0.413086
v 0.249023 0.560547 -0.424805
v 0.249023 0.798828 -0.309570
v 0.249023 0.490234 0.413086
v 0.249023 0.490234 -0.413086
v 0.249023 0.437500 -0.424805
v 0.249023 0.199219 -0.309570
v 0.250977 0.525391 0.420898
v 0.250977 0.472656 0.420898
v 0.252930 0.525391 -0.420898
v 0.252930 0.472656 -0.420898
v 0.258789 0.771484 -0.313477
v 0.258789 0.775391 0.311523
v 0.258789 0.880859 0.202148
v 0.258789 0.226562 -0.313477
v 0.258789 0.222656 0.311523
v 0.258789 0.117188 0.202148
v 0.260742 0.878906 -0.202148
v 0.260742 0.119141 -0.204102
v 0.266602 0.750000 -0.311523
v 0.266602 0.248047 -0.311523
v 0.276367 0.763672 0.327148
v 0.276367 0.234375 0.327148
v 0.286133 0.742188 -0.329102
v 0.286133 0.255859 -0.329102
v 0.290039 0.900391 0.106445
v 0.290039 0.097656 0.106445
v 0.291992 0.847656 0.217773
v 0.291992 0.896484 -0.106445
v 0.291992 0.150391 0.217773
v 0.291992 0.101562 -0.106445
v 0.299805 0.826172 0.219727
v 0.299805 0.835938 -0.219727
v 0.299805 0.906250 0.000977
v 0.299805 0.171875 0.219727
v 0.299805 0.162109 -0.219727
v 0.299805 0.091797 0.000977
v 0.301758 0.720703 0.336914
v 0.301758 0.277344 0.336914
v 0.303711 0.712891 -0.336914
v 0.303711 0.285156 -0.336914
v 0.309570 0.810547 -0.221680
v 0.309570 0.187500 -0.221680
v 0.315430 0.808594 0.223633
v 0.315430 0.189453 0.223633
v 0.321289 0.792969 -0.223633
v 0.321289 0.205078 -0.223633
v 0.325195 0.867188 0.116211
v 0.325195 0.130859 0.116211
v 0.331055 0.650391 0.344727
v 0.331055 0.347656 0.344727
v 0.333008 0.650391 -0.344727
v 0.333008 0.859375 -0.116211
v 0.333008 0.347656 -0.344727
v 0.333008 0.138672 -0.116211
v 0.334961 0.845703 0.116211
v 0.334961 0.152344 0.116211
v 0.336914 0.798828 0.233398
v 0.336914 0.199219 0.233398
v 0.338867 0.875000 0.000977
v 0.338867 0.123047 0.000977
v 0.340820 0.835938 -0.116211
v 0.340820 0.162109 -0.116211
v 0.342773 0.785156 -0.235352
v 0.342773 0.212891 -0.235352
v 0.346680 0.851562 0.000977
v 0.346680 0.146484 0.000977
v 0.350586 0.830078 0.118164
v 0.350586 0.167969 0.118164
v 0.352539 0.574219 0.344727
v 0.352539 0.423828 0.344727
v 0.354492 0.507812 0.331055
v 0.354492 0.507812 -0.331055
v 0.354492 0.574219 -0.344727
v 0.354492 0.490234 0.331055
v 0.354492 0.490234 -0.331055
v 0.354492 0.423828 -0.344727
v 0.356445 0.820312 -0.118164
v 0.356445 0.177734 -0.118164
v 0.360352 0.527344 0.340820
v 0.360352 0.527344 -0.340820
v 0.360352 0.470703 0.340820
v 0.360352 0.470703 -0.340820
v 0.364258 0.835938 0.000977
v 0.364258 0.162109 0.000977
v 0.368164 0.753906 0.241211
v 0.368164 0.244141 0.241211
v 0.370117 0.750000 -0.241211
v 0.370117 0.248047 -0.241211
v 0.375977 0.820312 0.124023
v 0.375977 0.177734 0.124023
v 0.379883 0.810547 -0.124023
v 0.379883 0.187500 -0.124023
v 0.389648 0.824219 0.000977
v 0.389648 0.173828 0.000977
v 0.405273 0.673828 0.247070
v 0.405273 0.673828 -0.247070
v 0.405273 0.324219 0.247070
v 0.405273 0.324219 -0.247070
v 0.411133 0.769531 -0.127930
v 0.411133 0.771484 0.127930
v 0.411133 0.228516 -0.127930
v 0.411133 0.226562 0.127930
v 0.424805 0.779297 0.000977
v 0.424805 0.218750 0.000977
v 0.430664 0.509766 0.233398
v 0.430664 0.509766 -0.233398
v 0.430664 0.587891 0.245117
v 0.430664 0.587891 -0.245117
v 0.430664 0.488281 0.233398
v 0.430664 0.488281 -0.233398
v 0.430664 0.410156 0.245117
v 0.430664 0.410156 -0.245117
v 0.438477 0.531250 0.241211
v 0.438477 0.531250 -0.241211
v 0.438477 0.466797 0.241211
v 0.438477 0.466797 -0.241211
v 0.452148 0.689453 0.129883
v 0.452148 0.689453 -0.129883
v 0.452148 0.308594 0.129883
v 0.452148 0.308594 -0.129883
v 0.469727 0.695312 0.000977
v 0.469727 0.302734 0.000977
v 0.477539 0.509766 0.122070
v 0.477539 0.509766 -0.122070
v 0.477539 0.488281 0.122070
v 0.477539 0.488281 -0.122070
v 0.479492 0.597656 0.129883
v 0.479492 0.597656 -0.127930
v 0.479492 0.400391 0.129883
v 0.479492 0.400391 -0.127930
v 0.487305 0.535156 0.125977
v 0.487305 0.535156 -0.125977
v 0.487305 0.462891 0.125977
v 0.487305 0.462891 -0.125977
v 0.491211 0.509766 0.000977
v 0.493164 0.488281 0.000977
v 0.495117 0.599609 0.000977
v 0.495117 0.398438 0.000977
v 0.499023 0.535156 0.000977
v 0.499023 0.462891 0.000977
v -0.038086 0.898438 -0.293945
v -0.038086 0.900391 0.291992
v -0.038086 0.099609 -0.293945
v -0.038086 0.097656 0.293945
v -0.041992 0.917969 -0.262695
v -0.041992 0.919922 0.262695
v -0.041992 0.080078 -0.262695
v -0.041992 0.078125 0.262695
v -0.047852 0.880859 -0.315430
v -0.047852 0.882812 0.315430
v -0.047852 0.117188 -0.315430
v -0.047852 0.115234 0.315430
v -0.061523 0.841797 -0.354492
v -0.061523 0.843750 0.354492
v -0.061523 0.156250 -0.354492
v -0.061523 0.154297 0.354492
v -0.063477 0.927734 0.247070
v -0.063477 0.927734 -0.247070
v -0.063477 0.070312 0.247070
v -0.063477 0.070312 -0.247070
v -0.077148 0.781250 -0.399414
v -0.077148 0.787109 0.397461
v -0.077148 0.218750 -0.401367
v -0.077148 0.212891 0.399414
v -0.086914 0.736328 0.428711
v -0.086914 0.261719 0.428711
v -0.088867 0.906250 0.276367
v -0.088867 0.906250 -0.276367
v -0.088867 0.091797 0.276367
v -0.088867 0.091797 -0.276367
v -0.090820 0.720703 -0.434570
v -0.090820 0.277344 -0.434570
v -0.092773 0.708984 0.438477
v -0.092773 0.289062 0.438477
v -0.094727 0.693359 -0.440430
v -0.094727 0.304688 -0.440430
v -0.096680 0.685547 0.434570
v -0.096680 0.312500 0.434570
v -0.098633 0.673828 -0.436523
v -0.098633 0.324219 -0.436523
v -0.100586 0.939453 0.213867
v -0.100586 0.939453 -0.213867
v -0.100586 0.058594 0.213867
v -0.100586 0.058594 -0.213867
v -0.104492 0.667969 0.454102
v -0.104492 0.330078 0.454102
v -0.106445 0.656250 -0.454102
v -0.106445 0.341797 -0.454102
v -0.112305 0.638672 -0.459961
v -0.112305 0.644531 0.461914
v -0.112305 0.359375 -0.459961
v -0.112305 0.353516 0.461914
v -0.118164 0.964844 0.143555
v -0.118164 0.964844 -0.143555
v -0.118164 0.033203 0.143555
v -0.118164 0.033203 -0.143555
v -0.120117 0.599609 -0.467773
v -0.120117 0.601562 0.467773
v -0.120117 0.869141 0.313477
v -0.120117 0.869141 -0.313477
v -0.120117 0.398438 -0.467773
v -0.120117 0.396484 0.467773
v -0.120117 0.128906 0.313477
v -0.120117 0.128906 -0.313477
v -0.125977 0.507812 0.463867
v -0.125977 0.507812 -0.463867
v -0.125977 0.523438 0.473633
v -0.125977 0.550781 -0.473633
v -0.125977 0.552734 0.473633
v -0.125977 0.490234 0.463867
v -0.125977 0.490234 -0.463867
v -0.125977 0.474609 0.473633
v -0.125977 0.447266 -0.473633
v -0.125977 0.445312 0.473633
v -0.127930 0.523438 -0.473633
v -0.127930 0.474609 -0.473633
v -0.129883 0.978516 0.073242
v -0.129883 0.978516 -0.073242
v -0.129883 0.019531 0.073242
v -0.129883 0.019531 -0.073242
v -0.133789 0.982422 0.000977
v -0.133789 0.015625 0.000977
v -0.149414 0.818359 0.354492
v -0.149414 0.181641 0.354492
v -0.151367 0.812500 -0.354492
v -0.151367 0.187500 -0.356445
v -0.165039 0.900391 0.250977
v -0.165039 0.097656 0.250977
v -0.166992 0.900391 -0.250977
v -0.166992 0.097656 -0.250977
v -0.168945 0.773438 0.379883
v -0.168945 0.224609 0.379883
v -0.176758 0.750000 0.383789
v -0.176758 0.248047 0.383789
v -0.178711 0.755859 -0.385742
v -0.178711 0.242188 -0.385742
v -0.184570 0.728516 0.387695
v -0.184570 0.269531 0.387695
v -0.186523 0.726562 -0.387695
v -0.186523 0.271484 -0.387695
v -0.192383 0.707031 -0.387695
v -0.192383 0.291016 -0.387695
v -0.198242 0.714844 0.403320
v -0.198242 0.283203 0.403320
v -0.200195 0.925781 0.174805
v -0.200195 0.925781 -0.174805
v -0.200195 0.072266 0.174805
v -0.200195 0.072266 -0.174805
v -0.206055 0.693359 -0.405273
v -0.206055 0.304688 -0.405273
v -0.211914 0.853516 0.286133
v -0.211914 0.144531 0.286133
v -0.213867 0.849609 -0.286133
v -0.213867 0.150391 -0.286133
v -0.215820 0.679688 0.413086
v -0.215820 0.318359 0.413086
v -0.217773 0.671875 -0.411133
v -0.217773 0.326172 -0.411133
v -0.223633 0.941406 0.090820
v -0.223633 0.941406 -0.090820
v -0.223633 0.056641 0.090820
v -0.223633 0.056641 -0.090820
v -0.231445 0.947266 0.000977
v -0.231445 0.050781 0.000977
v -0.233398 0.623047 0.420898
v -0.233398 0.375000 0.420898
v -0.235352 0.621094 -0.420898
v -0.235352 0.376953 -0.420898
v -0.239258 0.816406 0.305664
v -0.239258 0.181641 0.305664
v -0.247070 0.562500 0.424805
v -0.247070 0.792969 0.307617
v -0.247070 0.435547 0.424805
v -0.247070 0.205078 0.307617
v -0.249023 0.507812 0.413086
v -0.249023 0.507812 -0.413086
v -0.249023 0.560547 -0.424805
v -0.249023 0.798828 -0.309570
v -0.249023 0.490234 0.413086
v -0.249023 0.490234 -0.413086
v -0.249023 0.437500 -0.424805
v -0.249023 0.199219 -0.309570
v -0.250977 0.525391 0.420898
v -0.250977 0.472656 0.420898
v -0.252930 0.525391 -0.420898
v -0.252930 0.472656 -0.420898
v -0.258789 0.771484 -0.313477
v -0.258789 0.775391 0.313477
v -0.258789 0.880859 0.202148
v -0.258789 0.226562 -0.313477
v -0.258789 0.222656 0.311523
v -0.258789 0.117188 0.202148
v -0.260742 0.878906 -0.202148
v -0.260742 0.119141 -0.204102
v -0.266602 0.750000 -0.311523
v -0.266602 0.248047 -0.311523
v -0.276367 0.763672 0.327148
v -0.276367 0.234375 0.327148
v -0.286133 0.742188 -0.329102
v -0.286133 0.255859 -0.329102
v -0.290039 0.900391 0.106445
v -0.290039 0.097656 0.106445
v -0.291992 0.847656 0.217773
v -0.291992 0.896484 -0.106445
v -0.291992 0.150391 0.217773
v -0.291992 0.101562 -0.106445
v -0.299805 0.826172 0.219727
v -0.299805 0.835938 -0.219727
v -0.299805 0.906250 0.000977
v -0.299805 0.171875 0.219727
v -0.299805 0.162109 -0.219727
v -0.299805 0.091797 0.000977
v -0.301758 0.720703 0.336914
v -0.301758 0.277344 0.336914
v -0.303711 0.712891 -0.336914
v -0.303711 0.285156 -0.336914
v -0.309570 0.810547 -0.221680
v -0.309570 0.187500 -0.221680
v -0.315430 0.810547 0.223633
v -0.315430 0.187500 0.223633
v -0.321289 0.792969 -0.223633
v -0.321289 0.205078 -0.223633
v -0.325195 0.867188 0.116211
v -0.325195 0.130859 0.116211
v -0.331055 0.650391 0.344727
v -0.331055 0.347656 0.344727
v -0.333008 0.650391 -0.344727
v -0.333008 0.859375 -0.116211
v -0.333008 0.347656 -0.344727
v -0.333008 0.138672 -0.116211
v -0.334961 0.845703 0.116211
v -0.334961 0.152344 0.116211
v -0.336914 0.798828 0.233398
v -0.336914 0.199219 0.233398
v -0.338867 0.875000 0.000977
v -0.338867 0.123047 0.000977
v -0.340820 0.835938 -0.116211
v -0.340820 0.162109 -0.116211
v -0.342773 0.785156 -0.235352
v -0.342773 0.212891 -0.235352
v -0.346680 0.851562 0.000977
v -0.346680 0.146484 0.000977
v -0.350586 0.830078 0.118164
v -0.350586 0.167969 0.118164
v -0.352539 0.574219 0.344727
v -0.352539 0.423828 0.344727
v -0.354492 0.507812 0.331055
v -0.354492 0.507812 -0.331055
v -0.354492 0.574219 -0.344727
v -0.354492 0.490234 0.331055
v -0.354492 0.490234 -0.331055
v -0.354492 0.423828 -0.344727
v -0.356445 0.820312 -0.118164
v -0.356445 0.177734 -0.118164
v -0.360352 0.527344 0.340820
v -0.360352 0.527344 -0.340820
v -0.360352 0.470703 0.340820
v -0.360352 0.470703 -0.340820
v -0.364258 0.835938 0.000977
v -0.364258 0.162109 0.000977
v -0.368164 0.753906 0.241211
v -0.368164 0.244141 0.241211
v -0.370117 0.750000 -0.241211
v -0.370117 0.248047 -0.241211
v -0.375977 0.820312 0.124023
v -0.375977 0.177734 0.124023
v -0.379883 0.810547 -0.124023
v -0.379883 0.187500 -0.124023
v -0.389648 0.824219 0.000977
v -0.389648 0.173828 0.000977
v -0.405273 0.673828 0.247070
v -0.405273 0.673828 -0.247070
v -0.405273 0.324219 0.247070
v -0.405273 0.324219 -0.247070
v -0.411133 0.769531 -0.127930
v -0.411133 0.771484 0.127930
v -0.411133 0.228516 -0.127930
v -0.411133 0.226562 0.127930
v -0.424805 0.779297 0.000977
v -0.424805 0.218750 0.000977
v -0.430664 0.509766 0.233398
v -0.430664 0.509766 -0.233398
v -0.430664 0.587891 0.245117
v -0.430664 0.587891 -0.245117
v -0.430664 0.488281 0.233398
v -0.430664 0.488281 -0.233398
v -0.430664 0.410156 0.245117
v -0.430664 0.410156 -0.245117
v -0.438477 0.531250 0.241211
v -0.438477 0.531250 -0.241211
v -0.438477 0.466797 0.241211
v -0.438477 0.466797 -0.241211
v -0.452148 0.689453 0.129883
v -0.452148 0.689453 -0.129883
v -0.452148 0.308594 0.129883
v -0.452148 0.308594 -0.129883
v -0.469727 0.695312 0.000977
v -0.469727 0.302734 0.000977
v -0.477539 0.509766 0.122070
v -0.477539 0.509766 -0.122070
v -0.477539 0.488281 0.122070
v -0.477539 0.488281 -0.122070
v -0.479492 0.597656 0.129883
v -0.479492 0.597656 -0.127930
v -0.479492 0.400391 0.129883
v -0.479492 0.400391 -0.127930
v -0.487305 0.535156 0.125977
v -0.487305 0.535156 -0.125977
v -0.487305 0.462891 0.125977
v -0.487305 0.462891 -0.125977
v -0.491211 0.488281 0.000977
v -0.493164 0.509766 0.000977
v -0.495117 0.599609 0.000977
v -0.495117 0.398438 0.000977
v -0.499023 0.535156 0.000977
v -0.499023 0.462891 0.000977
vt 0.894043 0.622070
vt 0.868164 0.675049
vt 0.859863 0.666260
vt 0.844238 0.648438
vt 0.900635 0.631836
vt 0.875244 0.682129
vt 0.882812 0.607178
vt 0.867188 0.583740
vt 0.822021 0.620850
vt 0.799805 0.591309
vt 0.915283 0.552979
vt 0.930420 0.576660
vt 0.935303 0.587646
vt 0.979980 0.562012
vt 0.981689 0.576172
vt 0.978516 0.544434
vt 0.939209 0.600098
vt 0.982178 0.588623
vt 0.906982 0.640625
vt 0.945557 0.608887
vt 0.986572 0.597900
vt 0.985840 0.610840
vt 0.946045 0.615723
vt 0.982910 0.638916
vt 0.913574 0.650146
vt 0.882324 0.691406
vt 0.896973 0.709473
vt 0.926514 0.671631
vt 0.940430 0.703613
vt 0.955566 0.641113
vt 0.993896 0.660645
vt 0.968262 0.674316
vt 0.997559 0.684570
vt 0.973877 0.703369
vt 0.957275 0.726562
vt 0.954102 0.760498
vt 0.980469 0.716064
vt 0.996826 0.708984
vt 0.999268 0.736084
vt 0.979492 0.733398
vt 0.970459 0.742432
vt 1.000000 0.754150
vt 0.717285 0.687744
vt 0.727783 0.690186
vt 0.719971 0.737061
vt 0.730225 0.736572
vt 0.736572 0.690674
vt 0.697510 0.736816
vt 0.697021 0.685791
vt 0.666260 0.682129
vt 0.739746 0.736084
vt 0.746338 0.691895
vt 0.729980 0.785889
vt 0.699219 0.788574
vt 0.661621 0.736572
vt 0.625732 0.731689
vt 0.634277 0.678711
vt 0.615234 0.676514
vt 0.623535 0.790283
vt 0.602539 0.731689
vt 0.605957 0.675781
vt 0.592773 0.732178
vt 0.599121 0.673828
vt 0.597900 0.791260
vt 0.586914 0.791992
vt 0.584229 0.731445
vt 0.585693 0.843506
vt 0.576904 0.843262
vt 0.596191 0.844238
vt 0.622314 0.844971
vt 0.662109 0.790283
vt 0.666748 0.845215
vt 0.706055 0.842041
vt 0.729248 0.840820
vt 0.758301 0.829346
vt 0.740723 0.782959
vt 0.767090 0.825195
vt 0.749512 0.780762
vt 0.758789 0.779053
vt 0.776367 0.821533
vt 0.779785 0.826660
vt 0.749023 0.737305
vt 0.775391 0.781494
vt 0.769043 0.738525
vt 0.766113 0.696289
vt 0.807373 0.777100
vt 0.811279 0.819336
vt 0.800781 0.740234
vt 0.795898 0.702881
vt 0.794434 0.667725
vt 0.829834 0.704590
vt 0.847900 0.768555
vt 0.851074 0.805176
vt 0.898193 0.751221
vt 0.900879 0.782959
vt 0.839600 0.737061
vt 0.885254 0.720215
vt 0.873535 0.697998
vt 0.865234 0.682129
vt 0.836914 0.683594
vt 0.820801 0.675293
vt 0.852295 0.558838
vt 0.842773 0.544189
vt 0.787598 0.572510
vt 0.905762 0.531738
vt 0.975586 0.523193
vt 0.953857 0.496826
vt 0.900879 0.518799
vt 0.950195 0.489014
vt 0.896240 0.511719
vt 0.947266 0.481201
vt 0.837891 0.536621
vt 0.893066 0.503906
vt 0.782959 0.562988
vt 0.834473 0.529053
vt 0.239258 0.020508
vt 0.246338 0.017334
vt 0.269043 0.073242
vt 0.277344 0.071289
vt 0.255615 0.013916
vt 0.275879 0.009277
vt 0.293945 0.130615
vt 0.293457 0.068604
vt 0.319824 0.061523
vt 0.310791 0.004639
vt 0.343994 0.000244
vt 0.285889 0.131348
vt 0.261719 0.075684
vt 0.301758 0.187256
vt 0.293945 0.188232
vt 0.278320 0.132568
vt 0.306152 0.126709
vt 0.312744 0.185547
vt 0.341064 0.174561
vt 0.327148 0.121582
vt 0.356445 0.168701
vt 0.346191 0.063477
vt 0.345947 0.117920
vt 0.363770 0.060059
vt 0.368408 0.005859
vt 0.357422 0.117432
vt 0.365967 0.164551
vt 0.379883 0.005615
vt 0.376709 0.160156
vt 0.368896 0.114502
vt 0.386475 0.156982
vt 0.374268 0.058105
vt 0.389160 0.005615
vt 0.379395 0.113525
vt 0.398193 0.152588
vt 0.384277 0.056396
vt 0.399902 0.004150
vt 0.391846 0.109863
vt 0.422852 0.142334
vt 0.395020 0.054443
vt 0.421631 0.001953
vt 0.418213 0.058838
vt 0.453613 0.010742
vt 0.419434 0.106689
vt 0.452148 0.131348
vt 0.448486 0.093262
vt 0.472656 0.122070
vt 0.447754 0.048096
vt 0.490234 0.013428
vt 0.470947 0.082031
vt 0.484131 0.095703
vt 0.488281 0.112793
vt 0.510498 0.100098
vt 0.473633 0.041260
vt 0.494385 0.049072
vt 0.521729 0.044922
vt 0.492432 0.036621
vt 0.533936 0.030273
vt 0.293701 0.367920
vt 0.341553 0.349854
vt 0.343018 0.358887
vt 0.293701 0.377441
vt 0.344482 0.368896
vt 0.345703 0.393066
vt 0.294189 0.397705
vt 0.294922 0.431152
vt 0.389648 0.343506
vt 0.386963 0.334717
vt 0.436768 0.327881
vt 0.439453 0.332764
vt 0.393066 0.354492
vt 0.449951 0.357666
vt 0.396240 0.388184
vt 0.398193 0.428711
vt 0.449219 0.414307
vt 0.450195 0.468506
vt 0.346924 0.430908
vt 0.398438 0.467529
vt 0.449463 0.492676
vt 0.344482 0.468262
vt 0.295654 0.463379
vt 0.295898 0.484863
vt 0.345947 0.491699
vt 0.297363 0.495850
vt 0.399170 0.492920
vt 0.448486 0.504395
vt 0.347168 0.502441
vt 0.297363 0.504883
vt 0.400635 0.504639
vt 0.447998 0.514404
vt 0.347656 0.512451
vt 0.297852 0.515381
vt 0.401123 0.513916
vt 0.401123 0.523926
vt 0.447998 0.524902
vt 0.348633 0.521973
vt 0.446777 0.545898
vt 0.393555 0.544434
vt 0.341064 0.541992
vt 0.300781 0.536377
vt 0.305176 0.567627
vt 0.397461 0.577881
vt 0.433594 0.583496
vt 0.346191 0.574707
vt 0.396240 0.621094
vt 0.425049 0.626465
vt 0.335938 0.614258
vt 0.306885 0.603271
vt 0.389160 0.675781
vt 0.413086 0.681641
vt 0.317871 0.661133
vt 0.297363 0.647461
vt 0.300049 0.682861
vt 0.340088 0.682861
vt 0.300781 0.737793
vt 0.339600 0.738770
vt 0.378662 0.684326
vt 0.375977 0.739014
vt 0.401611 0.685547
vt 0.372803 0.792480
vt 0.396973 0.738525
vt 0.407471 0.737549
vt 0.412842 0.687012
vt 0.422363 0.687744
vt 0.416260 0.736328
vt 0.432373 0.687012
vt 0.411133 0.785645
vt 0.390869 0.792236
vt 0.411377 0.835205
vt 0.382080 0.843018
vt 0.367920 0.843750
vt 0.339844 0.844727
vt 0.419678 0.783936
vt 0.420654 0.833984
vt 0.338623 0.792480
vt 0.302490 0.791504
vt 0.306885 0.844727
vt 0.280029 0.843750
vt 0.276855 0.790283
vt 0.263672 0.841309
vt 0.275391 0.737549
vt 0.273926 0.683594
vt 0.267334 0.789062
vt 0.258545 0.788574
vt 0.264160 0.736572
vt 0.255615 0.737061
vt 0.263428 0.684082
vt 0.254639 0.684326
vt 0.179932 0.401123
vt 0.178467 0.409912
vt 0.129150 0.400879
vt 0.177734 0.421631
vt 0.126953 0.411865
vt 0.174072 0.447998
vt 0.122314 0.438721
vt 0.169189 0.488037
vt 0.116211 0.479980
vt 0.172119 0.525879
vt 0.114502 0.520264
vt 0.233154 0.485352
vt 0.112549 0.544189
vt 0.229492 0.447510
vt 0.228271 0.423340
vt 0.280518 0.446533
vt 0.282959 0.479980
vt 0.279297 0.419189
vt 0.237305 0.520508
vt 0.285645 0.509033
vt 0.286621 0.523926
vt 0.227295 0.413330
vt 0.227783 0.404297
vt 0.277344 0.409912
vt 0.276855 0.402344
vt 0.241211 0.539062
vt 0.286865 0.535400
vt 0.173828 0.547852
vt 0.220947 0.552246
vt 0.160889 0.557861
vt 0.112061 0.556152
vt 0.111572 0.565918
vt 0.161377 0.567139
vt 0.110107 0.576416
vt 0.221924 0.561279
vt 0.266602 0.553467
vt 0.160889 0.577637
vt 0.221436 0.572754
vt 0.265137 0.565674
vt 0.152344 0.600586
vt 0.108887 0.597412
vt 0.107178 0.631104
vt 0.202148 0.599365
vt 0.152588 0.635742
vt 0.260986 0.593262
vt 0.301514 0.591553
vt 0.256836 0.625732
vt 0.201904 0.633789
vt 0.183838 0.674561
vt 0.135498 0.677246
vt 0.105469 0.675049
vt 0.104004 0.731445
vt 0.140625 0.732178
vt 0.182861 0.725342
vt 0.214844 0.676514
vt 0.264648 0.670654
vt 0.206787 0.720947
vt 0.243164 0.683594
vt 0.223877 0.717773
vt 0.228027 0.693359
vt 0.234863 0.702881
vt 0.084229 0.951904
vt 0.063232 0.946777
vt 0.100342 0.891113
vt 0.119629 0.957764
vt 0.084717 0.887451
vt 0.053467 0.943359
vt 0.127930 0.897949
vt 0.150879 0.960693
vt 0.117676 0.831055
vt 0.076172 0.884766
vt 0.068848 0.881592
vt 0.105957 0.827148
vt 0.137451 0.775146
vt 0.139404 0.839600
vt 0.126709 0.770752
vt 0.155762 0.785156
vt 0.170654 0.791748
vt 0.097656 0.824951
vt 0.090332 0.822021
vt 0.118896 0.768066
vt 0.111328 0.765137
vt 0.157471 0.846680
vt 0.177002 0.797852
vt 0.152100 0.903564
vt 0.171143 0.850342
vt 0.163330 0.905029
vt 0.166748 0.962158
vt 0.179199 0.961914
vt 0.175049 0.906982
vt 0.189697 0.961914
vt 0.182129 0.854980
vt 0.188721 0.808350
vt 0.184082 0.908691
vt 0.202637 0.963867
vt 0.191162 0.856689
vt 0.198730 0.812012
vt 0.197510 0.912354
vt 0.228027 0.919922
vt 0.202881 0.862061
vt 0.209961 0.819092
vt 0.239990 0.831787
vt 0.231445 0.876465
vt 0.270020 0.855469
vt 0.261475 0.929443
vt 0.269043 0.968506
vt 0.262451 0.893066
vt 0.288818 0.875244
vt 0.285400 0.905273
vt 0.288818 0.934570
vt 0.303467 0.891113
vt 0.297852 0.910645
vt 0.309082 0.923584
vt 0.326172 0.908447
vt 0.337891 0.919434
vt 0.010254 0.185303
vt 0.012451 0.157959
vt 0.028320 0.181396
vt 0.008545 0.204834
vt 0.031494 0.165039
vt 0.014160 0.140381
vt 0.041992 0.157715
vt 0.052002 0.176025
vt 0.031738 0.195557
vt 0.035645 0.222168
vt 0.064453 0.201660
vt 0.061523 0.143311
vt 0.006836 0.229004
vt 0.075684 0.233643
vt 0.040527 0.256348
vt 0.004395 0.262451
vt 0.108398 0.201416
vt 0.043945 0.284668
vt 0.002930 0.291504
vt 0.084473 0.258057
vt 0.120605 0.221436
vt 0.126465 0.231445
vt 0.087646 0.269775
vt 0.045410 0.298584
vt 0.002441 0.304932
vt 0.002441 0.316162
vt 0.049805 0.309082
vt 0.001709 0.328369
vt 0.092529 0.279541
vt 0.130615 0.242188
vt 0.052979 0.321777
vt 0.000977 0.339600
vt 0.097900 0.290039
vt 0.137695 0.251709
vt 0.150635 0.271484
vt 0.056885 0.333252
vt 0.106934 0.306641
vt 0.055908 0.354248
vt 0.000488 0.357422
vt 0.118896 0.332031
vt 0.168945 0.302246
vt 0.186768 0.334961
vt 0.118652 0.363281
vt 0.058105 0.377686
vt 0.000244 0.378662
vt 0.000000 0.390869
vt 0.060059 0.391357
vt 0.000488 0.399414
vt 0.125732 0.379150
vt 0.185303 0.363037
vt 0.062988 0.399414
vt 0.000488 0.407715
vt 0.129395 0.387695
vt 0.064453 0.407715
vt 0.188232 0.373291
vt 0.131104 0.395752
vt 0.624268 0.411377
vt 0.621826 0.381348
vt 0.644043 0.417480
vt 0.616943 0.428467
vt 0.636719 0.372314
vt 0.657715 0.359619
vt 0.673828 0.408203
vt 0.681152 0.346191
vt 0.640625 0.452881
vt 0.606934 0.452393
vt 0.632568 0.483398
vt 0.728271 0.385254
vt 0.702881 0.334229
vt 0.701416 0.397949
vt 0.747070 0.424316
vt 0.675781 0.448730
vt 0.673828 0.481934
vt 0.627686 0.503906
vt 0.710693 0.440674
vt 0.758301 0.455811
vt 0.714844 0.475830
vt 0.672363 0.502930
vt 0.715820 0.496582
vt 0.760498 0.480713
vt 0.763428 0.501221
vt 0.716797 0.506592
vt 0.669678 0.512451
vt 0.625977 0.514404
vt 0.715576 0.516113
vt 0.763184 0.511719
vt 0.669922 0.521973
vt 0.624512 0.523438
vt 0.716797 0.527832
vt 0.766846 0.522705
vt 0.770020 0.546631
vt 0.669922 0.533203
vt 0.622559 0.533936
vt 0.719727 0.552979
vt 0.668701 0.556396
vt 0.619873 0.555176
vt 0.615234 0.587158
vt 0.669434 0.593750
vt 0.723145 0.591553
vt 0.775635 0.585938
vt 0.779541 0.627441
vt 0.721924 0.632324
vt 0.661377 0.630859
vt 0.610840 0.620361
vt 0.608154 0.640137
vt 0.661865 0.655273
vt 0.607178 0.649658
vt 0.725586 0.658691
vt 0.776367 0.657227
vt 0.662598 0.665283
vt 0.605225 0.656982
vt 0.727051 0.670166
vt 0.662109 0.674316
vt 0.776367 0.668213
vt 0.776611 0.677246
vt 0.894775 0.350830
vt 0.893066 0.372070
vt 0.849365 0.367920
vt 0.889648 0.405518
vt 0.847412 0.344238
vt 0.852539 0.403076
vt 0.808105 0.369629
vt 0.847656 0.333984
vt 0.895020 0.340576
vt 0.854736 0.446289
vt 0.884766 0.448975
vt 0.852295 0.502197
vt 0.877197 0.505859
vt 0.824219 0.496582
vt 0.825439 0.445312
vt 0.800537 0.491455
vt 0.815918 0.403076
vt 0.790527 0.439941
vt 0.782227 0.482178
vt 0.774170 0.453369
vt 0.761475 0.439941
vt 0.781006 0.405273
vt 0.746582 0.409424
vt 0.767578 0.373535
vt 0.802246 0.344727
vt 0.758057 0.347412
vt 0.758301 0.316406
vt 0.802490 0.326904
vt 0.757812 0.310791
vt 0.802734 0.317871
vt 0.847412 0.324463
vt 0.895752 0.330566
vt 0.897217 0.318848
vt 0.803467 0.307129
vt 0.756348 0.299316
vt 0.848633 0.313477
vt 0.801270 0.287598
vt 0.751953 0.285400
vt 0.846191 0.291504
vt 0.898682 0.294678
vt 0.749268 0.256104
vt 0.900391 0.254639
vt 0.848877 0.253662
vt 0.900635 0.212646
vt 0.797363 0.254150
vt 0.848633 0.213135
vt 0.900391 0.185547
vt 0.795898 0.216309
vt 0.745361 0.223877
vt 0.847168 0.186523
vt 0.899902 0.174316
vt 0.793213 0.192383
vt 0.743408 0.204102
vt 0.845459 0.175049
vt 0.849609 0.165771
vt 0.791260 0.182373
vt 0.742676 0.194580
vt 0.789307 0.173584
vt 0.877686 0.967529
vt 0.865234 0.965820
vt 0.886963 0.911133
vt 0.893555 0.967773
vt 0.875244 0.912598
vt 0.854980 0.964600
vt 0.898193 0.910889
vt 0.865967 0.912354
vt 0.841797 0.965088
vt 0.880615 0.856201
vt 0.869629 0.860352
vt 0.858154 0.810059
vt 0.848633 0.817627
vt 0.889404 0.854492
vt 0.864990 0.806396
vt 0.895508 0.794189
vt 0.860596 0.861816
vt 0.840088 0.823242
vt 0.912598 0.849365
vt 0.913086 0.786377
vt 0.848633 0.866699
vt 0.830566 0.830566
vt 0.852051 0.913086
vt 0.806152 0.843506
vt 0.820801 0.918701
vt 0.811768 0.965088
vt 0.818604 0.879150
vt 0.776855 0.863525
vt 0.786621 0.925781
vt 0.786377 0.893311
vt 0.757812 0.876953
vt 0.763184 0.905029
vt 0.743164 0.888428
vt 0.761719 0.934326
vt 0.746338 0.964355
vt 0.751221 0.911133
vt 0.722412 0.915283
vt 0.740723 0.925049
vt 0.741943 0.938232
vt 0.711182 0.927490
vt 0.922852 0.907959
vt 0.925049 0.968262
vt 0.934082 0.842773
vt 0.950928 0.904297
vt 0.960938 0.966309
vt 0.982178 0.963623
vt 0.966553 0.900879
vt 0.992188 0.961426
vt 0.946045 0.838623
vt 0.923584 0.781982
vt 0.974854 0.897461
vt 0.999756 0.959229
vt 0.953613 0.834961
vt 0.982422 0.894531
vt 0.931641 0.779053
vt 0.960938 0.831787
vt 0.293213 0.341797
vt 0.269531 0.398193
vt 0.263184 0.394043
vt 0.286621 0.336182
vt 0.254883 0.388184
vt 0.239502 0.373779
vt 0.322998 0.287109
vt 0.275146 0.323975
vt 0.254150 0.305908
vt 0.215332 0.346924
vt 0.192383 0.321533
vt 0.296387 0.264404
vt 0.328369 0.293457
vt 0.299316 0.346680
vt 0.312744 0.279297
vt 0.362793 0.246582
vt 0.368164 0.252930
vt 0.333496 0.299316
vt 0.354980 0.238281
vt 0.329590 0.220947
vt 0.315918 0.211426
vt 0.239990 0.282471
vt 0.282471 0.250732
vt 0.227295 0.269775
vt 0.182617 0.297607
vt 0.275391 0.241455
vt 0.307373 0.205566
vt 0.175537 0.288086
vt 0.297607 0.199219
vt 0.266357 0.233154
vt 0.289307 0.192871
vt 0.219482 0.261719
vt 0.169922 0.280029
vt 0.259521 0.224854
vt 0.279053 0.185547
vt 0.212402 0.254395
vt 0.162598 0.271729
vt 0.249268 0.216553
vt 0.257080 0.170898
vt 0.204590 0.246338
vt 0.148193 0.254883
vt 0.194824 0.224609
vt 0.136230 0.222656
vt 0.231689 0.195801
vt 0.230957 0.152344
vt 0.202881 0.178955
vt 0.211670 0.140381
vt 0.168701 0.205811
vt 0.116943 0.190186
vt 0.181152 0.166504
vt 0.195557 0.132568
vt 0.148193 0.187988
vt 0.170166 0.159668
vt 0.173584 0.119385
vt 0.142090 0.165771
vt 0.122803 0.144287
vt 0.104004 0.142578
vt 0.133545 0.174805
vt 0.602783 0.615234
vt 0.602783 0.635254
vt 0.551514 0.618408
vt 0.603027 0.581787
vt 0.552002 0.642578
vt 0.552490 0.580566
vt 0.553223 0.652588
vt 0.602783 0.644775
vt 0.554688 0.661621
vt 0.506104 0.666748
vt 0.508545 0.675537
vt 0.458740 0.681152
vt 0.454102 0.666992
vt 0.501709 0.648438
vt 0.448486 0.627441
vt 0.500732 0.621826
vt 0.500977 0.580566
vt 0.448486 0.583496
vt 0.453613 0.531494
vt 0.505127 0.538330
vt 0.554199 0.543213
vt 0.603027 0.549316
vt 0.603271 0.527832
vt 0.555420 0.519775
vt 0.602051 0.516846
vt 0.508057 0.512939
vt 0.458252 0.507324
vt 0.460449 0.495605
vt 0.555176 0.508545
vt 0.602295 0.507812
vt 0.510010 0.501465
vt 0.464111 0.486084
vt 0.555908 0.499268
vt 0.602051 0.497314
vt 0.511475 0.492188
vt 0.512695 0.482178
vt 0.466064 0.475586
vt 0.556152 0.489502
vt 0.469727 0.454834
vt 0.560059 0.469238
vt 0.599854 0.476318
vt 0.596680 0.444824
vt 0.514160 0.461426
vt 0.558594 0.436035
vt 0.513916 0.427734
vt 0.477783 0.421143
vt 0.531006 0.386963
vt 0.503906 0.375488
vt 0.568115 0.396729
vt 0.596924 0.409180
vt 0.555176 0.335693
vt 0.533691 0.322998
vt 0.589111 0.350098
vt 0.608887 0.364990
vt 0.692871 0.175293
vt 0.701660 0.176025
vt 0.687988 0.227295
vt 0.682129 0.173828
vt 0.677002 0.227295
vt 0.656250 0.171143
vt 0.688721 0.278320
vt 0.697266 0.278320
vt 0.651367 0.225830
vt 0.678955 0.280273
vt 0.695801 0.330078
vt 0.702881 0.329102
vt 0.687012 0.333008
vt 0.654297 0.279541
vt 0.664795 0.331543
vt 0.607422 0.329590
vt 0.609863 0.277344
vt 0.612793 0.223633
vt 0.616211 0.167969
vt 0.575928 0.274658
vt 0.578857 0.326172
vt 0.576416 0.221191
vt 0.577881 0.166260
vt 0.564697 0.324707
vt 0.554688 0.165771
vt 0.557129 0.271729
vt 0.553223 0.319580
vt 0.555420 0.220947
vt 0.546875 0.269775
vt 0.545166 0.217041
vt 0.543457 0.166260
vt 0.533936 0.166260
vt 0.536133 0.217041
vt 0.523926 0.165527
vt 0.538330 0.269775
vt 0.542969 0.316895
vt 0.526123 0.216309
vt 0.527344 0.268311
vt 0.531494 0.314453
vt 0.505859 0.308594
vt 0.503418 0.258789
vt 0.503662 0.211182
vt 0.503662 0.165527
vt 0.471436 0.166260
vt 0.474609 0.292725
vt 0.467529 0.327393
vt 0.469971 0.210205
vt 0.469727 0.247559
vt 0.441162 0.283203
vt 0.447266 0.312744
vt 0.432129 0.302734
vt 0.399170 0.295410
vt 0.395020 0.277832
vt 0.431396 0.240967
vt 0.381592 0.231445
vt 0.429199 0.198730
vt 0.375732 0.196045
vt 0.429443 0.167236
vt 0.374512 0.169678
vt 0.712402 0.193604
vt 0.696045 0.132080
vt 0.703857 0.130859
vt 0.722412 0.191406
vt 0.712646 0.128906
vt 0.742920 0.184814
vt 0.688477 0.070068
vt 0.680664 0.072021
vt 0.657959 0.018066
vt 0.665283 0.014648
vt 0.672607 0.010742
vt 0.696289 0.066895
vt 0.683350 0.005859
vt 0.728027 0.123779
vt 0.708984 0.064209
vt 0.730957 0.000732
vt 0.739502 0.057861
vt 0.749756 0.000000
vt 0.755127 0.115479
vt 0.776367 0.171387
vt 0.805176 0.157715
vt 0.778320 0.106689
vt 0.757568 0.053955
vt 0.758789 0.000000
vt 0.789307 0.103027
vt 0.819580 0.150635
vt 0.830078 0.144043
vt 0.765869 0.051270
vt 0.800049 0.097656
vt 0.839111 0.138672
vt 0.777344 0.048096
vt 0.770752 0.000488
vt 0.808594 0.093994
vt 0.851562 0.133545
vt 0.786377 0.045898
vt 0.780762 0.000000
vt 0.821533 0.089111
vt 0.799072 0.044434
vt 0.792725 0.000488
vt 0.823975 0.002441
vt 0.850342 0.077881
vt 0.877930 0.120361
vt 0.829834 0.040039
vt 0.859863 0.004883
vt 0.884521 0.066406
vt 0.865723 0.035889
vt 0.883057 0.007568
vt 0.891357 0.032471
vt 0.909668 0.054688
vt 0.904297 0.029297
vt 0.901855 0.010254
vt 0.929199 0.013428
vt 0.920654 0.033936
vt 0.927734 0.045166
vt 0.945068 0.016113
vt 0.426025 0.734375
vt 0.448730 0.732178
vt 0.451904 0.686768
vt 0.484131 0.689697
vt 0.430420 0.781006
vt 0.431885 0.830078
vt 0.460205 0.815186
vt 0.453613 0.773682
vt 0.485352 0.763916
vt 0.488770 0.800537
vt 0.481934 0.725098
vt 0.521729 0.789551
vt 0.497070 0.834961
vt 0.523193 0.753906
vt 0.523193 0.722900
vt 0.524414 0.691406
vt 0.578369 0.696289
vt 0.575928 0.726074
vt 0.571289 0.761230
vt 0.564697 0.785645
vt 0.559814 0.802979
vt 0.423340 0.994141
vt 0.387695 0.992920
vt 0.433594 0.947510
vt 0.452637 0.995117
vt 0.398438 0.954590
vt 0.464111 0.943359
vt 0.477783 0.942871
vt 0.466064 0.994873
vt 0.463135 0.892334
vt 0.481689 0.890625
vt 0.487061 0.943359
vt 0.476318 0.996338
vt 0.490967 0.890869
vt 0.489014 0.843750
vt 0.478760 0.845215
vt 0.500732 0.840820
vt 0.448730 0.851318
vt 0.422119 0.868652
vt 0.433838 0.903809
vt 0.391602 0.890137
vt 0.400635 0.918457
vt 0.372559 0.903809
vt 0.376709 0.928467
vt 0.370850 0.957275
vt 0.349365 0.982666
vt 0.363770 0.931885
vt 0.357666 0.914795
vt 0.335449 0.931396
vt 0.350830 0.958496
vt 0.322021 0.944824
vt 0.351562 0.943848
vt 0.488525 0.998291
vt 0.498779 0.942139
vt 0.504395 0.999023
vt 0.502686 0.888916
vt 0.510254 0.943115
vt 0.511475 0.889648
vt 0.507324 0.836426
vt 0.529541 0.883057
vt 0.520752 0.826904
vt 0.534912 0.939697
vt 0.535889 1.000000
vt 0.571777 0.999023
vt 0.552002 0.880127
vt 0.539795 0.822021
vt 0.562988 0.937256
vt 0.563232 0.873047
vt 0.548828 0.814453
vt 0.579102 0.935059
vt 0.593018 0.996582
vt 0.571533 0.871582
vt 0.557373 0.813721
vt 0.579102 0.869385
vt 0.587891 0.933350
vt 0.595459 0.931152
vt 0.603271 0.994629
vt 0.610840 0.992432
s 1
usemtl tripo_mat_561fabab-e343-48d4-a3de-28e2da3c36ca
f 178/1 225/2 232/3
f 178/1 232/3 248/4
f 225/2 178/1 172/5
f 225/2 172/5 208/6
f 178/1 248/4 190/7
f 190/7 248/4 200/8
f 200/8 248/4 260/9
f 200/8 260/9 280/10
f 190/7 200/8 136/11
f 178/1 190/7 126/12
f 126/12 190/7 136/11
f 178/1 126/12 120/13
f 178/1 120/13 172/5
f 120/13 126/12 47/14
f 47/14 126/12 136/11
f 120/13 47/14 49/15
f 47/14 136/11 45/16
f 120/13 49/15 112/17
f 120/13 112/17 172/5
f 112/17 49/15 51/18
f 172/5 112/17 168/19
f 172/5 168/19 208/6
f 112/17 51/18 108/20
f 112/17 108/20 168/19
f 108/20 51/18 53/21
f 108/20 53/21 55/22
f 108/20 55/22 100/23
f 108/20 100/23 168/19
f 100/23 55/22 57/24
f 166/25 208/6 168/19
f 166/25 168/19 100/23
f 208/6 166/25 204/26
f 204/26 166/25 186/27
f 186/27 166/25 158/28
f 158/28 166/25 100/23
f 186/27 158/28 137/29
f 98/30 100/23 57/24
f 100/23 98/30 158/28
f 98/30 57/24 58/31
f 158/28 98/30 90/32
f 90/32 98/30 58/31
f 158/28 90/32 137/29
f 90/32 58/31 60/33
f 137/29 90/32 86/34
f 86/34 90/32 60/33
f 137/29 86/34 103/35
f 137/29 103/35 117/36
f 86/34 60/33 78/37
f 86/34 78/37 103/35
f 78/37 60/33 63/38
f 78/37 63/38 64/39
f 103/35 78/37 82/40
f 82/40 78/37 64/39
f 103/35 82/40 93/41
f 82/40 64/39 66/42
f 82/40 66/42 93/41
f 232/43 225/44 268/45
f 268/45 225/44 254/46
f 254/46 225/44 208/47
f 232/43 268/45 296/48
f 232/43 296/48 248/49
f 248/49 296/48 260/50
f 254/46 208/47 244/51
f 244/51 208/47 204/52
f 268/45 254/46 300/53
f 296/48 268/45 312/54
f 312/54 268/45 300/53
f 260/50 296/48 307/55
f 307/55 296/48 312/54
f 260/50 307/55 321/56
f 260/50 321/56 280/57
f 280/57 321/56 291/58
f 321/56 307/55 339/59
f 291/58 321/56 325/60
f 325/60 321/56 339/59
f 291/58 325/60 284/61
f 284/61 325/60 319/62
f 284/61 319/62 281/63
f 319/62 325/60 343/64
f 343/64 325/60 339/59
f 319/62 343/64 335/65
f 319/62 335/65 315/66
f 335/65 343/64 346/67
f 335/65 346/67 345/68
f 346/67 343/64 350/69
f 350/69 343/64 339/59
f 350/69 339/59 348/70
f 348/70 339/59 329/71
f 329/71 339/59 307/55
f 348/70 329/71 332/72
f 329/71 307/55 312/54
f 332/72 329/71 314/73
f 314/73 329/71 312/54
f 314/73 312/54 300/53
f 314/73 300/53 304/74
f 304/74 300/53 294/75
f 294/75 300/53 278/76
f 278/76 300/53 254/46
f 294/75 278/76 276/77
f 278/76 254/46 244/51
f 276/77 278/76 266/78
f 266/78 278/76 244/51
f 276/77 266/78 258/79
f 276/77 258/79 270/80
f 270/80 258/79 246/81
f 266/78 244/51 239/82
f 266/78 239/82 258/79
f 239/82 244/51 204/52
f 246/81 258/79 236/83
f 236/83 258/79 239/82
f 239/82 204/52 226/84
f 239/82 226/84 236/83
f 226/84 204/52 186/85
f 246/81 236/83 195/86
f 246/81 195/86 198/87
f 236/83 226/84 181/88
f 236/83 181/88 195/86
f 226/84 186/85 162/89
f 226/84 162/89 181/88
f 162/89 186/85 137/90
f 162/89 137/90 117/91
f 198/87 195/86 153/92
f 153/92 195/86 181/88
f 198/87 153/92 156/93
f 156/93 153/92 72/94
f 156/93 72/94 74/95
f 153/92 181/88 129/96
f 129/96 181/88 162/89
f 153/92 129/96 72/94
f 129/96 162/89 117/91
f 72/94 129/96 70/97
f 70/97 129/96 117/91
f 70/97 117/91 68/98
f 68/98 117/91 66/99
f 66/99 117/91 93/100
f 93/100 117/91 103/101
f 207/102 200/8 280/10
f 200/8 207/102 136/11
f 207/102 280/10 218/103
f 218/103 280/10 291/104
f 136/11 207/102 148/105
f 136/11 148/105 45/16
f 45/16 148/105 42/106
f 42/106 148/105 40/107
f 148/105 207/102 146/108
f 148/105 146/108 40/107
f 146/108 207/102 218/103
f 40/107 146/108 38/109
f 38/109 146/108 144/110
f 144/110 146/108 218/103
f 38/109 144/110 1/111
f 144/110 218/103 213/112
f 213/112 218/103 291/104
f 144/110 213/112 139/113
f 213/112 291/104 284/114
f 213/112 284/114 209/115
f 284/116 281/117 209/118
f 209/118 281/117 217/119
f 217/119 281/117 289/120
f 217/119 289/120 279/121
f 209/118 217/119 141/122
f 217/119 279/121 205/123
f 217/119 205/123 141/122
f 205/123 279/121 199/124
f 199/124 279/121 259/125
f 199/124 259/125 247/126
f 209/118 141/122 139/127
f 209/118 139/127 213/128
f 139/127 141/122 3/129
f 139/127 3/129 1/130
f 139/127 1/130 144/131
f 3/129 141/122 143/132
f 143/132 141/122 205/123
f 3/129 143/132 5/133
f 5/133 143/132 8/134
f 143/132 205/123 132/135
f 143/132 132/135 8/134
f 132/135 205/123 199/124
f 8/134 132/135 10/136
f 132/135 199/124 189/137
f 189/137 199/124 247/126
f 10/136 132/135 124/138
f 124/138 132/135 189/137
f 189/137 247/126 177/139
f 189/137 177/139 124/138
f 177/139 247/126 231/140
f 10/136 124/138 119/141
f 119/141 124/138 177/139
f 10/136 119/141 12/142
f 177/139 231/140 222/143
f 12/142 119/141 14/144
f 14/144 119/141 111/145
f 111/145 119/141 177/139
f 14/144 111/145 16/146
f 177/139 222/143 171/147
f 177/139 171/147 111/145
f 171/147 222/143 206/148
f 16/146 111/145 107/149
f 107/149 111/145 171/147
f 16/146 107/149 18/150
f 171/147 206/148 167/151
f 171/147 167/151 107/149
f 167/151 206/148 203/152
f 18/150 107/149 99/153
f 99/153 107/149 167/151
f 18/150 99/153 20/154
f 167/151 203/152 165/155
f 167/151 165/155 99/153
f 165/155 203/152 185/156
f 165/155 185/156 157/157
f 165/155 157/157 99/153
f 157/157 185/156 161/158
f 20/154 99/153 96/159
f 96/159 99/153 157/157
f 20/154 96/159 21/160
f 21/160 96/159 88/161
f 88/161 96/159 157/157
f 21/160 88/161 23/162
f 157/157 161/158 133/163
f 157/157 133/163 88/161
f 133/163 161/158 115/164
f 23/162 88/161 84/165
f 84/165 88/161 133/163
f 23/162 84/165 76/166
f 23/162 76/166 26/167
f 26/167 76/166 27/168
f 84/165 133/163 101/169
f 84/165 101/169 76/166
f 101/169 133/163 115/164
f 27/168 76/166 80/170
f 80/170 76/166 101/169
f 27/168 80/170 29/171
f 80/170 101/169 91/172
f 91/172 101/169 115/164
f 80/170 91/172 29/171
f 29/171 91/172 115/164
f 29/171 115/164 31/173
f 281/174 319/175 315/176
f 281/174 315/176 289/177
f 289/177 315/176 323/178
f 289/177 323/178 317/179
f 289/177 317/179 279/180
f 279/180 317/179 259/181
f 323/178 315/176 333/182
f 333/182 315/176 335/183
f 333/182 335/183 345/184
f 333/182 345/184 349/185
f 333/182 349/185 341/186
f 333/182 341/186 323/178
f 341/186 349/185 347/187
f 323/178 341/186 337/188
f 337/188 341/186 347/187
f 323/178 337/188 317/179
f 337/188 347/187 327/189
f 327/189 347/187 331/190
f 327/189 331/190 313/191
f 317/179 337/188 305/192
f 305/192 337/188 327/189
f 317/179 305/192 259/181
f 327/189 313/191 310/193
f 327/189 310/193 305/192
f 310/193 313/191 303/194
f 259/181 305/192 295/195
f 295/195 305/192 310/193
f 259/181 295/195 247/196
f 247/196 295/195 231/197
f 231/197 295/195 267/198
f 267/198 295/195 310/193
f 231/197 267/198 222/199
f 310/193 303/194 299/200
f 310/193 299/200 267/198
f 299/200 303/194 293/201
f 222/199 267/198 253/202
f 253/202 267/198 299/200
f 222/199 253/202 206/203
f 299/200 293/201 277/204
f 299/200 277/204 253/202
f 277/204 293/201 275/205
f 206/203 253/202 241/206
f 241/206 253/202 277/204
f 206/203 241/206 203/207
f 277/204 275/205 265/208
f 277/204 265/208 241/206
f 265/208 275/205 257/209
f 257/209 275/205 269/210
f 241/206 265/208 237/211
f 237/211 265/208 257/209
f 241/206 237/211 203/207
f 257/209 269/210 243/212
f 237/211 257/209 235/213
f 235/213 257/209 243/212
f 203/207 237/211 223/214
f 223/214 237/211 235/213
f 203/207 223/214 185/215
f 185/215 223/214 161/216
f 235/213 243/212 193/217
f 193/217 243/212 197/218
f 223/214 235/213 179/219
f 179/219 235/213 193/217
f 223/214 179/219 161/216
f 193/217 197/218 151/220
f 193/217 151/220 179/219
f 151/220 197/218 155/221
f 161/216 179/219 127/222
f 127/222 179/219 151/220
f 161/216 127/222 115/223
f 151/220 155/221 35/224
f 151/220 35/224 127/222
f 35/224 155/221 37/225
f 127/222 35/224 33/226
f 127/222 33/226 115/223
f 115/223 33/226 31/227
f 348/228 332/229 340/230
f 340/230 332/229 330/231
f 330/231 332/229 314/232
f 330/231 314/232 311/233
f 311/233 314/232 304/234
f 330/231 311/233 298/235
f 311/233 304/234 302/236
f 311/233 302/236 298/235
f 302/236 304/234 288/237
f 288/237 304/234 294/238
f 288/237 294/238 276/239
f 288/237 276/239 272/240
f 272/240 276/239 270/241
f 302/236 288/237 256/242
f 256/242 288/237 272/240
f 302/236 256/242 274/243
f 302/236 274/243 298/235
f 274/243 256/242 230/244
f 274/243 230/244 234/245
f 274/243 234/245 298/235
f 298/235 234/245 250/246
f 298/235 250/246 263/247
f 230/244 256/242 252/248
f 252/248 256/242 272/240
f 230/244 252/248 224/249
f 298/235 263/247 308/250
f 298/235 308/250 330/231
f 330/231 308/250 340/230
f 308/250 263/247 322/251
f 308/250 322/251 340/230
f 322/251 263/247 286/252
f 322/251 286/252 292/253
f 322/251 292/253 326/254
f 322/251 326/254 340/230
f 326/254 292/253 285/255
f 340/230 326/254 344/256
f 340/230 344/256 348/228
f 348/228 344/256 350/257
f 326/254 285/255 320/258
f 326/254 320/258 344/256
f 320/258 285/255 316/259
f 350/257 344/256 336/260
f 336/260 344/256 320/258
f 336/260 320/258 334/261
f 350/257 336/260 346/262
f 346/262 336/260 345/263
f 336/264 334/265 345/266
f 345/266 334/265 342/267
f 345/266 342/267 349/268
f 349/268 342/267 338/269
f 349/268 338/269 347/270
f 347/270 338/269 328/271
f 347/270 328/271 331/272
f 331/272 328/271 309/273
f 331/272 309/273 313/274
f 328/271 338/269 306/275
f 328/271 306/275 309/273
f 313/274 309/273 303/276
f 318/277 338/269 342/267
f 338/269 318/277 306/275
f 318/277 342/267 324/278
f 324/278 342/267 334/265
f 306/275 318/277 283/279
f 283/279 318/277 324/278
f 306/275 283/279 261/280
f 283/279 324/278 290/281
f 306/275 261/280 297/282
f 306/275 297/282 309/273
f 297/282 261/280 249/283
f 297/282 249/283 233/284
f 290/281 324/278 316/285
f 316/285 324/278 334/265
f 316/285 334/265 320/286
f 290/281 316/285 282/287
f 282/287 316/285 285/288
f 297/282 233/284 273/289
f 273/289 233/284 229/290
f 301/291 309/273 297/282
f 301/291 297/282 273/289
f 309/273 301/291 303/276
f 273/289 229/290 255/292
f 273/289 255/292 301/291
f 303/276 301/291 287/293
f 287/293 301/291 255/292
f 303/276 287/293 293/294
f 293/294 287/293 275/295
f 275/295 287/293 271/296
f 271/296 287/293 255/292
f 275/295 271/296 269/297
f 251/298 255/292 229/290
f 255/292 251/298 271/296
f 251/298 229/290 221/299
f 269/297 271/296 262/300
f 262/300 271/296 251/298
f 251/298 221/299 242/301
f 251/298 242/301 262/300
f 242/301 221/299 212/302
f 269/297 262/300 238/303
f 269/297 238/303 243/304
f 243/304 238/303 197/305
f 238/303 262/300 227/306
f 227/306 262/300 242/301
f 197/305 238/303 194/307
f 194/307 238/303 227/306
f 242/301 212/302 187/308
f 242/301 187/308 227/306
f 187/308 212/302 159/309
f 187/308 159/309 163/310
f 227/306 187/308 180/311
f 227/306 180/311 194/307
f 180/311 187/308 163/310
f 194/307 180/311 128/312
f 128/312 180/311 163/310
f 152/313 197/305 194/307
f 152/313 194/307 128/312
f 197/305 152/313 155/314
f 155/314 152/313 37/315
f 37/315 152/313 36/316
f 36/316 152/313 128/312
f 36/316 128/312 34/317
f 116/318 128/312 163/310
f 128/312 116/318 34/317
f 116/318 163/310 134/319
f 34/317 116/318 32/320
f 116/318 134/319 102/321
f 32/320 116/318 30/322
f 116/318 102/321 92/323
f 116/318 92/323 30/322
f 92/323 102/321 79/324
f 92/323 79/324 30/322
f 283/325 290/326 211/327
f 283/325 211/327 261/328
f 211/327 290/326 219/329
f 219/329 290/326 282/330
f 261/328 211/327 201/331
f 261/328 201/331 249/332
f 211/327 219/329 142/333
f 211/327 142/333 201/331
f 219/329 282/330 210/334
f 210/334 282/330 214/335
f 142/333 219/329 149/336
f 149/336 219/329 210/334
f 142/333 149/336 6/337
f 201/331 142/333 131/338
f 131/338 142/333 6/337
f 6/337 149/336 4/339
f 131/338 6/337 7/340
f 131/338 7/340 9/341
f 149/336 210/334 140/342
f 149/336 140/342 4/339
f 140/342 210/334 145/343
f 4/339 140/342 2/344
f 2/344 140/342 39/345
f 131/338 9/341 123/346
f 123/346 9/341 11/347
f 191/348 201/331 131/338
f 191/348 131/338 123/346
f 201/331 191/348 249/332
f 123/346 11/347 121/349
f 123/346 121/349 191/348
f 249/332 191/348 183/350
f 183/350 191/348 121/349
f 249/332 183/350 233/351
f 233/351 183/350 229/352
f 229/352 183/350 175/353
f 175/353 183/350 121/349
f 229/352 175/353 221/354
f 113/355 121/349 11/347
f 121/349 113/355 175/353
f 113/355 11/347 13/356
f 221/354 175/353 173/357
f 173/357 175/353 113/355
f 221/354 173/357 212/358
f 113/355 13/356 109/359
f 113/355 109/359 173/357
f 109/359 13/356 15/360
f 212/358 173/357 169/361
f 169/361 173/357 109/359
f 212/358 169/361 159/362
f 109/359 15/360 105/363
f 109/359 105/363 169/361
f 169/361 105/363 159/362
f 105/363 15/360 17/364
f 105/363 17/364 19/365
f 105/363 19/365 95/366
f 105/363 95/366 159/362
f 95/366 19/365 22/367
f 159/362 95/366 134/368
f 159/362 134/368 163/369
f 95/366 22/367 87/370
f 95/366 87/370 134/368
f 87/370 22/367 24/371
f 134/368 87/370 83/372
f 83/372 87/370 24/371
f 134/368 83/372 102/373
f 83/372 24/371 25/374
f 102/373 83/372 75/375
f 75/375 83/372 25/374
f 102/373 75/375 79/376
f 75/375 25/374 28/377
f 75/375 28/377 79/376
f 79/376 28/377 30/378
f 26/379 27/380 352/381
f 26/379 352/381 23/382
f 352/381 27/380 356/383
f 356/383 27/380 29/384
f 356/383 29/384 367/385
f 356/383 367/385 377/386
f 356/383 377/386 352/381
f 23/382 352/381 360/387
f 360/387 352/381 377/386
f 23/382 360/387 364/388
f 360/387 377/386 409/389
f 360/387 409/389 364/388
f 409/389 377/386 391/390
f 23/382 364/388 21/391
f 364/388 409/389 433/392
f 21/391 364/388 372/393
f 372/393 364/388 433/392
f 21/391 372/393 20/394
f 433/392 409/389 461/395
f 20/394 372/393 375/396
f 375/396 372/393 433/392
f 20/394 375/396 18/397
f 433/392 461/395 441/398
f 433/392 441/398 375/396
f 441/398 461/395 479/399
f 441/398 479/399 482/400
f 375/396 441/398 443/401
f 443/401 441/398 482/400
f 18/397 375/396 383/402
f 383/402 375/396 443/401
f 18/397 383/402 16/403
f 16/403 383/402 14/404
f 14/404 383/402 387/405
f 387/405 383/402 443/401
f 14/404 387/405 12/406
f 443/401 482/400 447/407
f 443/401 447/407 387/405
f 447/407 482/400 498/408
f 12/406 387/405 395/409
f 395/409 387/405 447/407
f 12/406 395/409 10/410
f 447/407 498/408 453/411
f 447/407 453/411 395/409
f 453/411 498/408 507/412
f 453/411 507/412 523/413
f 395/409 453/411 400/414
f 395/409 400/414 10/410
f 453/411 523/413 465/415
f 453/411 465/415 400/414
f 10/410 400/414 408/416
f 408/416 400/414 465/415
f 10/410 408/416 8/417
f 465/415 523/413 475/418
f 465/415 475/418 408/416
f 475/418 523/413 535/419
f 475/418 535/419 555/420
f 408/416 475/418 481/421
f 481/421 475/418 555/420
f 8/417 408/416 419/422
f 419/422 408/416 481/421
f 8/417 419/422 5/423
f 5/423 419/422 3/424
f 3/424 419/422 417/425
f 417/425 419/422 481/421
f 3/424 417/425 1/426
f 481/421 555/420 493/427
f 481/421 493/427 417/425
f 493/427 555/420 565/428
f 1/426 417/425 415/429
f 415/429 417/425 493/427
f 1/426 415/429 38/430
f 493/427 565/428 485/431
f 493/427 485/431 415/429
f 415/429 485/431 420/432
f 485/431 565/428 557/433
f 485/431 557/433 489/434
f 367/435 29/436 391/437
f 367/435 391/437 377/438
f 391/437 29/436 31/439
f 391/437 31/439 33/440
f 391/437 33/440 403/441
f 403/441 33/440 35/442
f 391/437 403/441 437/443
f 391/437 437/443 409/444
f 409/444 437/443 461/445
f 431/446 35/442 37/447
f 35/442 431/446 427/448
f 35/442 427/448 403/441
f 427/448 431/446 473/449
f 437/443 403/441 455/450
f 455/450 403/441 427/448
f 461/445 437/443 499/451
f 499/451 437/443 455/450
f 461/445 499/451 479/452
f 427/448 473/449 469/453
f 427/448 469/453 455/450
f 469/453 473/449 519/454
f 455/450 469/453 511/455
f 511/455 469/453 519/454
f 455/450 511/455 499/451
f 479/452 499/451 513/456
f 513/456 499/451 511/455
f 511/455 519/454 533/457
f 511/455 533/457 513/456
f 533/457 519/454 545/458
f 533/457 545/458 551/459
f 513/456 533/457 541/460
f 541/460 533/457 551/459
f 479/452 513/456 517/461
f 517/461 513/456 541/460
f 479/452 517/461 482/462
f 541/460 551/459 553/463
f 541/460 553/463 517/461
f 553/463 551/459 569/464
f 482/462 517/461 529/465
f 529/465 517/461 553/463
f 482/462 529/465 498/466
f 553/463 569/464 575/467
f 553/463 575/467 529/465
f 575/467 569/464 579/468
f 575/467 579/468 589/469
f 498/466 529/465 543/470
f 543/470 529/465 575/467
f 498/466 543/470 507/471
f 575/467 589/469 586/472
f 575/467 586/472 543/470
f 507/471 543/470 571/473
f 571/473 543/470 586/472
f 507/471 571/473 523/474
f 523/474 571/473 535/475
f 571/473 586/472 581/476
f 571/473 581/476 535/475
f 603/477 586/472 589/469
f 586/472 603/477 581/476
f 603/477 589/469 607/478
f 603/477 607/478 623/479
f 581/476 603/477 613/480
f 613/480 603/477 623/479
f 535/475 581/476 593/481
f 593/481 581/476 613/480
f 535/475 593/481 555/482
f 555/482 593/481 565/483
f 565/483 593/481 599/484
f 599/484 593/481 613/480
f 565/483 599/484 557/485
f 613/480 623/479 617/486
f 613/480 617/486 599/484
f 617/486 623/479 625/487
f 557/485 599/484 591/488
f 591/488 599/484 617/486
f 557/485 591/488 560/489
f 617/486 625/487 609/490
f 617/486 609/490 591/488
f 591/488 609/490 595/491
f 609/490 625/487 622/492
f 609/490 622/492 621/493
f 545/494 519/495 514/496
f 514/496 519/495 473/497
f 545/494 514/496 538/498
f 514/496 473/497 470/499
f 538/498 514/496 503/500
f 503/500 514/496 470/499
f 545/494 538/498 547/501
f 545/494 547/501 551/502
f 470/499 473/497 428/503
f 428/503 473/497 431/504
f 428/503 431/504 36/505
f 36/505 431/504 37/506
f 428/503 36/505 34/507
f 428/503 34/507 404/508
f 428/503 404/508 470/499
f 404/508 34/507 32/509
f 470/499 404/508 456/510
f 470/499 456/510 503/500
f 404/508 32/509 392/511
f 404/508 392/511 456/510
f 392/511 32/509 30/512
f 392/511 30/512 368/513
f 392/511 368/513 378/514
f 456/510 392/511 439/515
f 456/510 439/515 503/500
f 439/515 392/511 410/516
f 439/515 410/516 463/517
f 439/515 463/517 503/500
f 503/500 463/517 518/518
f 518/518 463/517 488/519
f 503/500 518/518 538/498
f 518/518 488/519 497/520
f 538/498 518/518 527/521
f 527/521 518/518 497/520
f 538/498 527/521 547/501
f 527/521 497/520 505/522
f 547/501 527/521 531/523
f 531/523 527/521 505/522
f 547/501 531/523 563/524
f 547/501 563/524 551/502
f 551/502 563/524 569/525
f 569/525 563/524 579/526
f 531/523 505/522 549/527
f 549/527 505/522 509/528
f 563/524 531/523 577/529
f 577/529 531/523 549/527
f 563/524 577/529 579/526
f 549/527 509/528 573/530
f 549/527 573/530 577/529
f 573/530 509/528 525/531
f 579/526 577/529 585/532
f 585/532 577/529 573/530
f 579/526 585/532 589/533
f 573/530 525/531 537/534
f 589/533 585/532 607/535
f 607/535 585/532 604/536
f 604/536 585/532 573/530
f 607/535 604/536 623/537
f 573/530 537/534 582/538
f 573/530 582/538 604/536
f 623/537 604/536 614/539
f 614/539 604/536 582/538
f 623/537 614/539 625/540
f 582/538 537/534 594/541
f 582/538 594/541 614/539
f 594/541 537/534 559/542
f 625/540 614/539 618/543
f 618/543 614/539 594/541
f 625/540 618/543 622/544
f 594/541 559/542 600/545
f 594/541 600/545 618/543
f 600/545 559/542 566/546
f 622/544 618/543 610/547
f 610/547 618/543 600/545
f 622/544 610/547 612/548
f 612/548 610/547 592/549
f 592/549 610/547 600/545
f 592/549 600/545 566/546
f 592/549 566/546 558/550
f 592/549 558/550 596/551
f 509/552 505/553 459/554
f 509/552 459/554 525/555
f 459/554 505/553 451/556
f 451/556 505/553 497/557
f 525/555 459/554 467/558
f 451/556 497/557 449/559
f 449/559 497/557 488/560
f 459/554 451/556 397/561
f 459/554 397/561 467/558
f 451/556 449/559 389/562
f 451/556 389/562 397/561
f 397/561 389/562 11/563
f 11/563 389/562 13/564
f 397/561 11/563 399/565
f 397/561 399/565 467/558
f 399/565 11/563 9/566
f 399/565 9/566 7/567
f 13/564 389/562 385/568
f 385/568 389/562 449/559
f 13/564 385/568 15/569
f 399/565 7/567 407/570
f 399/565 407/570 467/558
f 407/570 7/567 6/571
f 15/569 385/568 381/572
f 15/569 381/572 17/573
f 385/568 449/559 445/574
f 385/568 445/574 381/572
f 445/574 449/559 488/560
f 17/573 381/572 19/575
f 445/574 488/560 435/576
f 445/574 435/576 381/572
f 435/576 488/560 463/577
f 19/575 381/572 371/578
f 371/578 381/572 435/576
f 19/575 371/578 22/579
f 435/576 463/577 410/580
f 435/576 410/580 371/578
f 22/579 371/578 363/581
f 363/581 371/578 410/580
f 22/579 363/581 24/582
f 24/582 363/581 359/583
f 359/583 363/581 410/580
f 24/582 359/583 25/584
f 359/583 410/580 378/585
f 378/585 410/580 392/586
f 25/584 359/583 351/587
f 351/587 359/583 378/585
f 25/584 351/587 28/588
f 351/587 378/585 355/589
f 351/587 355/589 28/588
f 355/589 378/585 368/590
f 28/588 355/589 30/591
f 30/591 355/589 368/590
f 477/592 467/558 407/570
f 467/558 477/592 525/555
f 525/555 477/592 537/593
f 477/592 407/570 418/594
f 418/594 407/570 6/571
f 537/593 477/592 487/595
f 487/595 477/592 418/594
f 537/593 487/595 559/596
f 559/596 487/595 566/597
f 566/597 487/595 495/598
f 495/598 487/595 418/594
f 566/597 495/598 558/599
f 418/594 6/571 425/600
f 418/594 425/600 495/598
f 425/600 6/571 4/601
f 558/599 495/598 486/602
f 486/602 495/598 425/600
f 558/599 486/602 561/603
f 425/600 4/601 416/604
f 425/600 416/604 486/602
f 486/602 416/604 490/605
f 416/604 4/601 2/606
f 416/604 2/606 421/607
f 489/608 557/609 560/610
f 489/608 560/610 494/611
f 494/611 560/610 567/612
f 494/611 567/612 556/613
f 489/608 494/611 422/614
f 494/611 556/613 483/615
f 494/611 483/615 422/614
f 483/615 556/613 476/616
f 476/616 556/613 536/617
f 476/616 536/617 524/618
f 483/615 476/616 412/619
f 489/608 422/614 420/620
f 489/608 420/620 485/621
f 422/614 483/615 424/622
f 424/622 483/615 412/619
f 420/620 422/614 40/623
f 40/623 422/614 424/622
f 420/620 40/623 38/624
f 420/620 38/624 415/625
f 40/623 424/622 42/626
f 42/626 424/622 45/627
f 45/627 424/622 412/619
f 45/627 412/619 47/628
f 466/629 412/619 476/616
f 466/629 476/616 524/618
f 47/628 412/619 402/630
f 402/630 412/619 466/629
f 466/629 524/618 454/631
f 466/629 454/631 402/630
f 454/631 524/618 508/632
f 47/628 402/630 396/633
f 396/633 402/630 454/631
f 47/628 396/633 49/634
f 454/631 508/632 501/635
f 49/634 396/633 51/636
f 51/636 396/633 388/637
f 388/637 396/633 454/631
f 51/636 388/637 53/638
f 454/631 501/635 448/639
f 454/631 448/639 388/637
f 448/639 501/635 484/640
f 53/638 388/637 384/641
f 384/641 388/637 448/639
f 53/638 384/641 55/642
f 448/639 484/640 444/643
f 448/639 444/643 384/641
f 444/643 484/640 480/644
f 55/642 384/641 376/645
f 376/645 384/641 444/643
f 55/642 376/645 57/646
f 444/643 480/644 442/647
f 444/643 442/647 376/645
f 442/647 480/644 462/648
f 442/647 462/648 434/649
f 442/647 434/649 376/645
f 434/649 462/648 438/650
f 57/646 376/645 374/651
f 374/651 376/645 434/649
f 57/646 374/651 58/652
f 58/652 374/651 366/653
f 366/653 374/651 434/649
f 58/652 366/653 60/654
f 434/649 438/650 413/655
f 434/649 413/655 366/653
f 413/655 438/650 393/656
f 60/654 366/653 362/657
f 362/657 366/653 413/655
f 60/654 362/657 63/658
f 413/655 393/656 379/659
f 413/655 379/659 362/657
f 63/658 362/657 354/660
f 354/660 362/657 379/659
f 63/658 354/660 64/661
f 64/661 354/660 358/662
f 358/662 354/660 379/659
f 64/661 358/662 66/663
f 68/664 66/663 393/656
f 358/662 379/659 369/665
f 358/662 369/665 66/663
f 369/665 379/659 393/656
f 369/665 393/656 66/663
f 556/666 567/667 597/668
f 556/666 597/668 536/669
f 597/668 567/667 601/670
f 536/669 597/668 583/671
f 601/670 567/667 595/672
f 595/672 567/667 560/673
f 595/672 560/673 591/674
f 601/670 595/672 611/675
f 611/675 595/672 609/676
f 611/675 609/676 621/677
f 611/675 621/677 626/678
f 611/675 626/678 619/679
f 611/675 619/679 601/670
f 619/679 626/678 624/680
f 601/670 619/679 615/681
f 601/670 615/681 597/668
f 615/681 619/679 624/680
f 597/668 615/681 583/671
f 615/681 624/680 605/682
f 615/681 605/682 583/671
f 605/682 624/680 608/683
f 605/682 608/683 590/684
f 583/671 605/682 588/685
f 588/685 605/682 590/684
f 583/671 588/685 572/686
f 583/671 572/686 536/669
f 536/669 572/686 524/687
f 524/687 572/686 508/688
f 508/688 572/686 544/689
f 544/689 572/686 588/685
f 508/688 544/689 501/690
f 588/685 590/684 576/691
f 588/685 576/691 544/689
f 576/691 590/684 580/692
f 576/691 580/692 570/693
f 501/690 544/689 530/694
f 530/694 544/689 576/691
f 501/690 530/694 484/695
f 576/691 570/693 554/696
f 576/691 554/696 530/694
f 554/696 570/693 552/697
f 484/695 530/694 520/698
f 520/698 530/694 554/696
f 484/695 520/698 480/699
f 554/696 552/697 542/700
f 554/696 542/700 520/698
f 542/700 552/697 534/701
f 534/701 552/697 546/702
f 520/698 542/700 515/703
f 515/703 542/700 534/701
f 520/698 515/703 480/699
f 534/701 546/702 522/704
f 480/699 515/703 502/705
f 480/699 502/705 462/706
f 462/706 502/705 438/707
f 515/703 534/701 512/708
f 515/703 512/708 502/705
f 512/708 534/701 522/704
f 438/707 502/705 457/709
f 457/709 502/705 512/708
f 512/708 522/704 471/710
f 512/708 471/710 457/709
f 471/710 522/704 474/711
f 471/710 474/711 429/712
f 471/710 429/712 457/709
f 429/712 474/711 432/713
f 438/707 457/709 405/714
f 405/714 457/709 429/712
f 438/707 405/714 393/715
f 429/712 432/713 72/716
f 429/712 72/716 405/714
f 72/716 432/713 74/717
f 405/714 72/716 70/718
f 405/714 70/718 393/715
f 393/715 70/718 68/719
f 621/720 622/721 612/722
f 621/720 612/722 626/723
f 626/723 612/722 620/724
f 626/723 620/724 624/725
f 620/724 612/722 596/726
f 596/726 612/722 592/727
f 624/725 620/724 616/728
f 620/724 596/726 602/729
f 620/724 602/729 616/728
f 602/729 596/726 561/730
f 561/730 596/726 558/731
f 602/729 561/730 568/732
f 602/729 568/732 598/733
f 602/729 598/733 616/728
f 598/733 568/732 562/734
f 598/733 562/734 539/735
f 616/728 598/733 584/736
f 584/736 598/733 539/735
f 606/737 624/725 616/728
f 606/737 616/728 584/736
f 624/725 606/737 608/738
f 584/736 539/735 574/739
f 584/736 574/739 606/737
f 574/739 539/735 526/740
f 608/738 606/737 587/741
f 587/741 606/737 574/739
f 608/738 587/741 590/742
f 574/739 526/740 510/743
f 590/742 587/741 580/744
f 574/739 510/743 550/745
f 550/745 510/743 506/746
f 587/741 574/739 578/747
f 578/747 574/739 550/745
f 587/741 578/747 580/744
f 550/745 506/746 532/748
f 550/745 532/748 578/747
f 580/744 578/747 564/749
f 564/749 578/747 532/748
f 580/744 564/749 570/750
f 570/750 564/749 552/751
f 552/751 564/749 548/752
f 548/752 564/749 532/748
f 552/751 548/752 546/753
f 528/754 532/748 506/746
f 532/748 528/754 548/752
f 528/754 506/746 500/755
f 546/753 548/752 540/756
f 540/756 548/752 528/754
f 528/754 500/755 521/757
f 528/754 521/757 540/756
f 521/757 500/755 492/758
f 521/757 492/758 464/759
f 540/756 521/757 504/760
f 504/760 521/757 464/759
f 546/753 540/756 516/761
f 516/761 540/756 504/760
f 546/753 516/761 522/762
f 522/762 516/761 474/763
f 504/760 464/759 440/764
f 440/764 464/759 414/765
f 516/761 504/760 472/766
f 516/761 472/766 474/763
f 504/760 440/764 458/767
f 504/760 458/767 472/766
f 440/764 414/765 394/768
f 440/764 394/768 458/767
f 394/768 414/765 380/769
f 394/768 380/769 370/770
f 394/768 370/770 67/771
f 394/768 67/771 69/772
f 458/767 394/768 406/773
f 406/773 394/768 69/772
f 458/767 406/773 472/766
f 406/773 69/772 71/774
f 472/766 406/773 430/775
f 430/775 406/773 71/774
f 472/766 430/775 474/763
f 430/775 71/774 73/776
f 474/763 430/775 432/777
f 432/777 430/775 73/776
f 432/777 73/776 74/778
f 561/779 486/780 490/781
f 561/779 490/781 568/782
f 568/782 490/781 496/783
f 568/782 496/783 562/784
f 496/783 490/781 421/785
f 421/785 490/781 416/786
f 2/787 39/788 421/785
f 421/785 39/788 41/789
f 421/785 41/789 426/790
f 421/785 426/790 496/783
f 426/790 41/789 43/791
f 491/792 562/784 496/783
f 491/792 496/783 426/790
f 426/790 43/791 423/793
f 426/790 423/793 491/792
f 423/793 43/791 44/794
f 423/793 44/794 411/795
f 423/793 411/795 491/792
f 411/795 44/794 46/796
f 478/797 562/784 491/792
f 478/797 491/792 411/795
f 562/784 478/797 539/798
f 539/798 478/797 526/799
f 478/797 411/795 468/800
f 478/797 468/800 526/799
f 411/795 46/796 401/801
f 411/795 401/801 468/800
f 401/801 46/796 48/802
f 526/799 468/800 460/803
f 526/799 460/803 510/804
f 510/804 460/803 506/805
f 468/800 401/801 398/806
f 398/806 401/801 48/802
f 468/800 398/806 460/803
f 506/805 460/803 452/807
f 452/807 460/803 398/806
f 506/805 452/807 500/808
f 398/806 48/802 390/809
f 398/806 390/809 452/807
f 390/809 48/802 50/810
f 500/808 452/807 450/811
f 450/811 452/807 390/809
f 500/808 450/811 492/812
f 390/809 50/810 386/813
f 390/809 386/813 450/811
f 386/813 50/810 52/814
f 492/812 450/811 446/815
f 446/815 450/811 386/813
f 386/813 52/814 382/816
f 386/813 382/816 446/815
f 382/816 52/814 54/817
f 382/816 54/817 56/818
f 492/812 446/815 436/819
f 436/819 446/815 382/816
f 492/812 436/819 464/820
f 382/816 56/818 373/821
f 382/816 373/821 436/819
f 373/821 56/818 59/822
f 464/820 436/819 414/823
f 414/823 436/819 373/821
f 373/821 59/822 365/824
f 373/821 365/824 414/823
f 365/824 59/822 61/825
f 414/823 365/824 361/826
f 361/826 365/824 61/825
f 414/823 361/826 380/827
f 361/826 61/825 353/828
f 361/826 353/828 380/827
f 353/828 61/825 62/829
f 353/828 62/829 65/830
f 380/827 353/828 357/831
f 357/831 353/828 65/830
f 380/827 357/831 370/832
f 357/831 65/830 67/833
f 357/831 67/833 370/832
f 264/834 272/240 270/241
f 272/240 264/834 252/248
f 264/834 270/241 240/835
f 240/835 270/241 246/836
f 240/835 246/836 198/837
f 252/248 264/834 245/838
f 252/248 245/838 224/249
f 224/249 245/838 216/839
f 216/839 245/838 188/840
f 245/838 264/834 228/841
f 245/838 228/841 188/840
f 228/841 264/834 240/835
f 188/840 228/841 182/842
f 188/840 182/842 164/843
f 228/841 240/835 196/844
f 228/841 196/844 182/842
f 196/844 240/835 198/837
f 164/843 182/842 118/845
f 164/843 118/845 138/846
f 182/842 196/844 130/847
f 182/842 130/847 118/845
f 196/844 198/837 154/848
f 196/844 154/848 130/847
f 154/848 198/837 156/849
f 154/848 156/849 74/850
f 154/848 74/850 73/851
f 154/848 73/851 130/847
f 130/847 73/851 71/852
f 130/847 71/852 118/845
f 118/845 71/852 69/853
f 118/845 69/853 67/854
f 188/855 164/856 160/857
f 188/855 160/857 216/858
f 160/857 164/856 138/859
f 216/858 160/857 170/860
f 216/858 170/860 174/861
f 216/858 174/861 224/862
f 170/860 160/857 106/863
f 174/861 170/860 110/864
f 110/864 170/860 106/863
f 224/862 174/861 176/865
f 224/862 176/865 230/866
f 174/861 110/864 114/867
f 174/861 114/867 176/865
f 114/867 110/864 50/868
f 50/868 110/864 52/869
f 52/869 110/864 106/863
f 114/867 50/868 48/870
f 52/869 106/863 54/871
f 54/871 106/863 56/872
f 56/872 106/863 97/873
f 97/873 106/863 160/857
f 56/872 97/873 59/874
f 97/873 160/857 138/859
f 59/874 97/873 89/875
f 89/875 97/873 138/859
f 59/874 89/875 61/876
f 89/875 138/859 85/877
f 89/875 85/877 61/876
f 85/877 138/859 104/878
f 104/878 138/859 118/879
f 61/876 85/877 77/880
f 77/880 85/877 104/878
f 61/876 77/880 62/881
f 62/881 77/880 65/882
f 104/878 118/879 94/883
f 94/883 118/879 67/884
f 77/880 104/878 81/885
f 81/885 104/878 94/883
f 77/880 81/885 65/882
f 81/885 94/883 67/884
f 81/885 67/884 65/882
f 234/886 230/866 184/887
f 184/887 230/866 176/865
f 234/886 184/887 250/888
f 184/887 176/865 122/889
f 122/889 176/865 114/867
f 122/889 114/867 48/870
f 184/887 122/889 192/890
f 184/887 192/890 250/888
f 122/889 48/870 125/891
f 122/889 125/891 192/890
f 125/891 48/870 46/892
f 125/891 46/892 135/893
f 125/891 135/893 192/890
f 135/893 46/892 44/894
f 250/888 192/890 202/895
f 202/895 192/890 135/893
f 250/888 202/895 263/896
f 263/896 202/895 286/897
f 135/893 44/894 147/898
f 147/898 44/894 43/899
f 202/895 135/893 215/900
f 202/895 215/900 286/897
f 215/900 135/893 147/898
f 147/898 43/899 150/901
f 147/898 150/901 215/900
f 150/901 43/899 41/902
f 286/897 215/900 220/903
f 220/903 215/900 150/901
f 286/897 220/903 292/904
f 150/901 41/902 145/905
f 150/901 145/905 220/903
f 145/905 41/902 39/906
f 145/905 39/906 140/907
f 220/903 145/905 214/908
f 220/903 214/908 292/904
f 214/908 145/905 210/909
f 292/904 214/908 285/910
f 285/910 214/908 282/911
